<svg width="100.000000" height="100.000000" viewBox="0 0 100 100" fill="none" xmlns="http://www.w3.org/2000/svg" xmlns:xlink="http://www.w3.org/1999/xlink">
	<desc>
			Created with Pixso.
	</desc>
	<defs/>
	<mask id="mask502_79146" mask-type="alpha" maskUnits="userSpaceOnUse" x="0.000000" y="0.000000" width="100.000000" height="100.000000">
		<rect id="文件为空" width="100.000000" height="100.000000" fill="#000000" fill-opacity="1.000000"/>
	</mask>
	<g mask="url(#mask502_79146)">
		<path id="矩形" d="M15.37 16.25L84 16.25C86.27 16.25 88.12 18.08 88.12 20.37L88.12 35L11.25 35L11.25 20.37C11.25 18.08 13.08 16.25 15.37 16.25Z" fill="#F0F0F0" fill-opacity="1.000000" fill-rule="evenodd"/>
		<path id="矩形" d="M84.31 16.25C86.58 16.25 88.43 18.11 88.43 20.41L88.43 35L11.56 35L11.56 20.41C11.56 18.11 13.4 16.25 15.67 16.25L84.31 16.25ZM84.31 17.63L15.67 17.63C14.16 17.63 12.92 18.87 12.92 20.41L12.92 33.6L87.06 33.6L87.06 20.41C87.06 18.92 85.9 17.71 84.45 17.63L84.31 17.63Z" fill="#808080" fill-opacity="1.000000" fill-rule="nonzero"/>
		<path id="形状结合" d="M91.25 79.61C91.25 81.89 89.4 83.75 87.12 83.75L12.87 83.75C10.58 83.75 8.75 81.89 8.75 79.61L8.75 36.98C8.75 34.71 10.58 32.87 12.87 32.87L50.91 32.86L63.75 21.87L87.12 21.87C89.4 21.87 91.25 23.71 91.25 26L91.25 79.61Z" fill="#FFFFFF" fill-opacity="1.000000" fill-rule="evenodd"/>
		<path id="形状结合" d="M87.12 21.87C89.4 21.87 91.25 23.71 91.25 26L91.25 79.61C91.25 81.89 89.4 83.75 87.12 83.75L12.87 83.75C10.58 83.75 8.75 81.89 8.75 79.61L8.75 36.98C8.75 34.71 10.58 32.87 12.87 32.87L50.91 32.87L63.75 21.87L87.12 21.87ZM64.25 23.25L51.42 34.25L12.87 34.25C11.35 34.25 10.12 35.47 10.12 36.98L10.12 79.61C10.12 81.13 11.35 82.37 12.87 82.37L87.12 82.37C88.63 82.37 89.87 81.13 89.87 79.61L89.87 26C89.87 24.47 88.63 23.25 87.12 23.25L64.25 23.25Z" fill="#808080" fill-opacity="1.000000" fill-rule="nonzero"/>
		<circle id="椭圆形备份" cx="50.000000" cy="58.125000" r="10.000000" fill="#1476FF" fill-opacity="1.000000"/>
		<path id="形状结合" d="M50 52.5C50.33 52.5 50.62 52.77 50.62 53.12L50.62 57.48L55 57.5C55.33 57.5 55.62 57.77 55.62 58.12C55.62 58.46 55.33 58.75 55 58.75L50.62 58.75L50.62 63.12C50.62 63.46 50.33 63.75 50 63.75C49.65 63.75 49.37 63.46 49.37 63.12L49.37 58.75L45 58.75C44.65 58.75 44.37 58.46 44.37 58.12C44.37 57.77 44.65 57.5 45 57.5L49.37 57.5L49.37 53.12C49.37 52.77 49.65 52.5 50 52.5Z" fill="#FFFFFF" fill-opacity="1.000000" fill-rule="evenodd"/>
	</g>
</svg>
