<svg width="120.000000" height="120.000000" viewBox="0 0 120 120" fill="none" xmlns="http://www.w3.org/2000/svg"
    xmlns:xlink="http://www.w3.org/1999/xlink">
    <desc>
        Created with Pixso.
    </desc>
    <defs />
    <rect width="120.000000" height="120.000000" fill="#FFFFFF" fill-opacity="0" />
    <path
        d="M18.75 37.31L104.52 37.31C107.68 37.31 110.25 39.87 110.25 43.04L110.25 105.15C110.25 108.28 107.71 110.81 104.59 110.81L24.4 110.81C21.28 110.81 18.75 108.28 18.75 105.15L18.75 37.31Z"
        fill="#F0F0F0" fill-opacity="1.000000" fill-rule="evenodd" />
    <path
        d="M13.22 38.06L84.75 38.06L84.75 105.15C84.75 108.28 82.21 110.81 79.09 110.81L16.9 110.81C13.78 110.81 11.25 108.12 11.25 105L11.25 59.25L0.75 59.25C0.75 58.15 12.13 38.06 13.22 38.06Z"
        fill="#FFFFFF" fill-opacity="1.000000" fill-rule="evenodd" />
    <path
        d="M84.44 38.06L105.13 38.06C106.16 38.06 107.41 37.86 107.91 38.76L118.07 56.96C118.45 57.64 119.18 58.68 118.5 59.06C118.28 59.17 117.08 59.06 116.84 59.06L99.33 59.06C97.21 59.06 95.27 57.87 94.3 55.98L84.44 38.06Z"
        fill="#FFFFFF" fill-opacity="1.000000" fill-rule="evenodd" />
    <path
        d="M110.42 59.08L110.42 105.09C110.42 108.35 107.78 111 104.51 111L78.89 111L78.89 109.68L104.51 109.68C107.05 109.68 109.11 107.63 109.11 105.09L109.11 59.08L110.42 59.08Z"
        fill="#808080" fill-opacity="1.000000" fill-rule="nonzero" />
    <path
        d="M85.38 37.5L85.38 105.09C85.38 108.35 82.73 111 79.46 111L16.42 111C13.15 111 10.51 108.35 10.51 105.09L10.51 59.08L11.82 59.08L11.82 105.09C11.82 107.63 13.88 109.68 16.42 109.68L79.46 109.68C82 109.68 84.06 107.63 84.06 105.09L84.06 38.81L16 38.81L16 37.5L85.38 37.5Z"
        fill="#808080" fill-opacity="1.000000" fill-rule="nonzero" />
    <path
        d="M14.14 37.5C13.25 37.5 12.42 37.96 11.95 38.74L0.19 57.97C-0.19 58.59 0 59.41 0.6 59.79C0.81 59.92 1.05 60 1.29 60L68.53 60C70.28 60 71.92 59.08 72.87 57.58L85.56 37.5L14.14 37.5ZM14.47 39L82.76 39L71.48 56.71C70.78 57.82 69.56 58.5 68.26 58.5L1.76 58.5L13.39 39.61C13.62 39.23 14.03 39 14.47 39Z"
        fill="#808080" fill-opacity="1.000000" fill-rule="nonzero" />
    <path
        d="M106.12 37.5C106.97 37.5 107.75 37.95 108.21 38.7L119.8 57.79C120.17 58.4 120 59.21 119.43 59.6C119.22 59.74 118.99 59.81 118.75 59.81L99.22 59.81C97.46 59.81 95.83 58.82 94.94 57.22L83.97 37.5L106.12 37.5ZM106.09 39L86.69 39L96.27 56.57C96.92 57.76 98.11 58.5 99.39 58.5L118.35 58.5L107.1 39.59C106.88 39.22 106.5 39 106.09 39Z"
        fill="#808080" fill-opacity="1.000000" fill-rule="nonzero" />
    <rect x="20.250000" y="84.000000" rx="1.886225" width="20.999998" height="6.000000" fill="#1476FF"
        fill-opacity="1.000000" />
    <path
        d="M35.34 94.5C35.7 94.5 36 94.83 36 95.25C36 95.66 35.7 96 35.34 96L20.9 96C20.54 96 20.25 95.66 20.25 95.25C20.25 94.83 20.54 94.5 20.9 94.5L35.34 94.5Z"
        fill="#808080" fill-opacity="1.000000" fill-rule="nonzero" />
    <rect x="20.250000" y="99.000000" rx="0.750000" width="7.500000" height="1.500000" fill="#808080"
        fill-opacity="1.000000" />
    <path
        d="M60 9C60.41 9 60.75 9.29 60.75 9.66L60.75 18.91C60.75 19.27 60.41 19.57 60 19.57C59.58 19.57 59.24 19.27 59.24 18.91L59.24 9.66C59.24 9.29 59.58 9 60 9Z"
        fill="#808080" fill-opacity="1.000000" fill-rule="nonzero" />
    <path
        d="M84.83 12.96C85.19 13.17 85.33 13.59 85.15 13.91L80.52 21.92C80.34 22.24 79.9 22.33 79.54 22.12C79.18 21.91 79.03 21.48 79.21 21.17L83.84 13.16C84.02 12.84 84.46 12.75 84.83 12.96Z"
        fill="#808080" fill-opacity="1.000000" fill-rule="nonzero" />
    <path
        d="M35.17 12.96C35.53 12.75 35.97 12.84 36.15 13.16L40.78 21.17C40.96 21.48 40.81 21.91 40.45 22.12C40.09 22.33 39.65 22.24 39.47 21.92L34.84 13.91C34.66 13.59 34.81 13.17 35.17 12.96Z"
        fill="#808080" fill-opacity="1.000000" fill-rule="nonzero" />
</svg>