<svg width="1em" height="1em" viewBox="0 0 16 16" fill="none" xmlns="http://www.w3.org/2000/svg" xmlns:xlink="http://www.w3.org/1999/xlink">
	<rect id="矩形" width="16.000000" height="16.000000" fill="#D8D8D8" fill-opacity="0"/>
	<rect id="矩形" x="0.500000" y="0.500000" width="15.000000" height="15.000000" stroke="#979797" stroke-opacity="0" stroke-width="1.000000"/>
	<path id="Fill 1" d="M9.79 6.23C7.34 6.66 6.66 7.34 6.23 9.79C6.19 10.06 5.8 10.06 5.76 9.79C5.33 7.34 4.65 6.66 2.2 6.23C1.93 6.19 1.93 5.8 2.2 5.76C4.65 5.33 5.33 4.65 5.76 2.2C5.8 1.93 6.19 1.93 6.23 2.2C6.66 4.65 7.34 5.33 9.79 5.76C10.06 5.8 10.06 6.19 9.79 6.23Z" fill="#1476FF" fill-opacity="1.000000" fill-rule="evenodd"/>
	<path id="Fill 1备份" d="M13.87 11.64C12.33 11.91 11.91 12.33 11.64 13.87C11.62 14.04 11.37 14.04 11.35 13.87C11.08 12.33 10.66 11.91 9.12 11.64C8.95 11.62 8.95 11.37 9.12 11.35C10.66 11.08 11.08 10.66 11.35 9.12C11.37 8.95 11.62 8.95 11.64 9.12C11.91 10.66 12.33 11.08 13.87 11.35C14.04 11.37 14.04 11.62 13.87 11.64Z" fill="#1476FF" fill-opacity="1.000000" fill-rule="evenodd"/>
</svg>
