<svg width="1em" height="1em" fill="currentColor" viewBox="0 0 16 16" xmlns="http://www.w3.org/2000/svg"
    xmlns:xlink="http://www.w3.org/1999/xlink">
    <desc>
        Created with Pixso.
    </desc>
    <defs />
    <path id="形状"
        d="M11.1274 3.62L14.1301 3.62C14.3801 3.62 14.6304 3.87012 14.6304 4.12036C14.6304 4.37061 14.3801 4.62085 14.1301 4.62085L1.86963 4.62085C1.61938 4.62085 1.36914 4.37061 1.36914 4.12036C1.36914 3.87012 1.61938 3.62 1.86963 3.62L4.78882 3.62L5.45605 1.86841C5.6228 1.36804 6.12329 1.03442 6.62354 1.03442L9.37598 1.03442C9.95972 1.03442 10.4602 1.36804 10.627 1.86841L11.1274 3.62ZM6.3728 2.12048C6.3728 2.03711 6.53979 1.95374 6.70654 1.95374L9.37549 1.95374C9.54224 1.95374 9.62573 2.03711 9.70898 2.12048L10.1262 3.53845L5.87256 3.53845L6.3728 2.12048ZM12.0452 13.129L12.0452 5.78943C12.0452 5.53918 12.2954 5.28894 12.5457 5.28894C12.7959 5.28894 13.0461 5.53918 13.0461 5.78943L13.0461 13.129C13.0461 14.1299 12.2119 14.9639 11.2112 14.9639L4.45532 14.9639C3.45459 14.9639 2.62061 14.1299 2.62061 13.129L2.62061 5.78943C2.62061 5.53918 2.87061 5.28894 3.12085 5.28894C3.37109 5.28894 3.62134 5.53918 3.62134 5.78943L3.62134 13.129C3.62134 13.546 3.95508 13.963 4.45532 13.963L11.2112 13.963C11.6282 13.963 12.0452 13.6294 12.0452 13.129Z"
        clip-rule="evenodd" fill="#191919" fill-opacity="1.000000" fill-rule="evenodd" />
    <path id="路径"
        d="M5.78 11.87L5.78 7.29C5.78 7.04 6.04 6.79 6.29 6.79C6.54 6.79 6.79 7.04 6.79 7.29L6.79 11.87C6.79 12.04 6.7 12.12 6.62 12.21C6.54 12.29 6.37 12.37 6.29 12.37C5.95 12.37 5.78 12.12 5.78 11.87Z"
        fill="#191919" fill-opacity="1.000000" fill-rule="evenodd" />
    <path id="路径_1_"
        d="M8.87 11.87L8.87 7.29C8.87 7.04 9.12 6.79 9.37 6.79C9.62 6.79 9.87 7.04 9.87 7.29L9.87 11.87C9.87 12.12 9.62 12.37 9.37 12.37C9.12 12.37 8.87 12.12 8.87 11.87Z"
        fill="#191919" fill-opacity="1.000000" fill-rule="evenodd" />
</svg>