<svg width="1em" height="1em" viewBox="0 0 16 16" fill="none" xmlns="http://www.w3.org/2000/svg"
    xmlns:xlink="http://www.w3.org/1999/xlink">
    <defs>
        <clipPath id="clip597_81528">
            <rect id="推荐-recommended" width="16.000000" height="16.000000" transform="matrix(1 0 0 -1 0 16)"
                fill="white" fill-opacity="0" />
        </clipPath>
    </defs>
    <g clip-path="url(#clip597_81528)">
        <path id="c"
            d="M2.85 1.33C2.03 1.33 1.35 1.98 1.33 2.78L1.33 2.9L1.33 7.88C1.33 8.71 1.98 9.4 2.78 9.45L2.89 9.45L4.46 9.45L5.46 10.37C5.89 10.76 6.19 11.27 6.32 11.83L6.35 11.99L6.64 13.57C6.78 14.41 7.69 14.87 8.46 14.52C9.44 14.08 10.03 13.06 9.92 11.99L9.91 11.84L9.71 10.53C9.71 10.53 9.3 8.85 9.14 8.77C8.94 8.67 8.87 8.45 8.62 8.5C8.37 8.53 8.05 8.77 8.21 9.17L8.57 10.13C8.57 10.13 8.71 10.69 8.71 10.74L8.91 12C9.01 12.68 8.64 13.35 8.01 13.62C7.87 13.69 7.69 13.61 7.62 13.45L7.3 11.73C7.17 10.98 6.8 10.28 6.26 9.76L6.12 9.63L5.14 8.74L5.14 2.33L11.8 2.33C12.28 2.33 12.71 2.65 12.83 3.11L12.85 3.21L13.62 7.13C13.76 7.79 13.28 8.41 12.64 8.45L8.62 8.5C8.33 8.5 8.14 8.67 8.14 8.95C8.14 9.2 8.33 9.41 8.57 9.45L12.6 9.45C13.87 9.45 14.83 8.32 14.62 7.06L14.6 6.93L13.83 3.01C13.64 2.08 12.85 1.38 11.91 1.33L11.8 1.33L2.85 1.33ZM4.14 8.45L2.89 8.45C2.6 8.45 2.37 8.24 2.33 7.95L2.33 2.9C2.33 2.6 2.55 2.36 2.82 2.33L4.16 2.33L4.14 8.45Z"
            fill="#191919" fill-opacity="1.000000" fill-rule="nonzero" />
    </g>
</svg>