<svg width="1em" height="1em" viewBox="0 0 16 16" fill="currentColor" xmlns="http://www.w3.org/2000/svg"
    xmlns:xlink="http://www.w3.org/1999/xlink">
    <desc>
        Created with Pixso.
    </desc>
    <defs />
    <path id="矢量 36"
        d="M4.64 13.86C4.83 13.78 4.99 13.67 5.13 13.53L12.82 5.84C12.95 5.71 13.07 5.57 13.16 5.42C13.24 5.29 13.31 5.15 13.37 5.01C13.43 4.87 13.47 4.72 13.51 4.57C13.54 4.41 13.56 4.24 13.56 4.07C13.56 3.9 13.54 3.73 13.51 3.57C13.47 3.42 13.43 3.27 13.37 3.13C13.31 2.99 13.24 2.85 13.16 2.72C13.07 2.57 12.95 2.43 12.82 2.3C12.69 2.17 12.55 2.06 12.4 1.96C12.27 1.88 12.14 1.81 12 1.75C11.85 1.7 11.71 1.65 11.56 1.62C11.39 1.59 11.23 1.57 11.06 1.57C10.88 1.57 10.72 1.59 10.55 1.62C10.4 1.65 10.26 1.7 10.11 1.75C9.97 1.81 9.84 1.88 9.71 1.96C9.56 2.06 9.42 2.17 9.29 2.3L1.6 9.99C1.45 10.14 1.35 10.3 1.27 10.48C1.19 10.66 1.16 10.86 1.16 11.06L1.16 13.27C1.16 13.37 1.17 13.46 1.21 13.54C1.24 13.62 1.29 13.7 1.36 13.76C1.43 13.83 1.51 13.88 1.59 13.92C1.67 13.95 1.76 13.97 1.86 13.97L4.07 13.97C4.27 13.97 4.46 13.93 4.64 13.86ZM12.12 5.13L10.99 6.26L8.87 4.13L9.99 3.01C10.08 2.93 10.17 2.86 10.26 2.8C10.33 2.75 10.41 2.71 10.49 2.68C10.57 2.65 10.66 2.62 10.74 2.6C10.85 2.58 10.95 2.57 11.06 2.57C11.16 2.57 11.27 2.58 11.37 2.6C11.45 2.62 11.54 2.65 11.62 2.68C11.7 2.71 11.78 2.75 11.85 2.8C11.94 2.86 12.03 2.93 12.12 3.01C12.2 3.09 12.27 3.18 12.33 3.28C12.37 3.35 12.41 3.43 12.45 3.51C12.48 3.59 12.51 3.67 12.52 3.76C12.54 3.86 12.56 3.96 12.56 4.07C12.56 4.18 12.54 4.28 12.52 4.38C12.51 4.47 12.48 4.55 12.45 4.63C12.37 4.82 12.26 4.99 12.12 5.13ZM4.42 12.82L10.28 6.96L8.16 4.84L2.3 10.7C2.2 10.8 2.16 10.92 2.16 11.06L2.16 12.97L4.07 12.97C4.21 12.97 4.33 12.92 4.42 12.82ZM7.17 13.45C7.17 13.17 7.39 12.95 7.67 12.95L12.67 12.95C12.95 12.95 13.17 13.17 13.17 13.45C13.17 13.73 12.95 13.95 12.67 13.95L7.67 13.95C7.39 13.95 7.17 13.73 7.17 13.45Z"
        fill="#191919" fill-opacity="1.000000" fill-rule="evenodd" />
</svg>