<svg width="7em" height="7em" viewBox="0 0 112 112" fill="none" xmlns="http://www.w3.org/2000/svg"
    xmlns:xlink="http://www.w3.org/1999/xlink">
    <defs />
    <path id="矩形备份-2"
        d="M77.18 14L88.67 14C91.82 14 94.37 16.55 94.37 19.7L94.37 32.17C94.37 32.96 93.73 33.6 92.95 33.6L77.18 33.6L77.18 14Z"
        fill="#EEEEEE" fill-opacity="1.000000" fill-rule="evenodd" />
    <path id="矩形备份-2"
        d="M94.3774 19.6016C94.3774 16.5088 91.8123 14.0016 88.6477 14.0016L77.1885 14.0016L77.1885 33.6016L92.9451 33.6016C93.7361 33.6016 94.3774 32.9748 94.3774 32.2016L94.3774 19.6016ZM78.4785 15.2609L88.6475 15.2609C91.0991 15.2609 93.0867 17.2034 93.0867 19.5996L93.0867 32.1996C93.0867 32.2762 93.0229 32.3383 92.9446 32.3383L78.4785 32.3383L78.4785 15.2609Z"
        clip-rule="evenodd" fill="#818181" fill-opacity="1.000000" fill-rule="evenodd" />
    <path id="矩形"
        d="M20.33 13.99L88.62 13.99L88.62 13.99C88.88 14.79 89 15.19 89 15.19C82.79 15.19 83.59 19.05 83.59 31C83.59 37.03 83.59 41.87 83.59 45.5C83.59 45.5 83.59 45.5 83.59 45.5L83.59 94.62C83.59 98.03 80.83 100.8 77.41 100.8L20.33 100.8C16.92 100.8 14.16 98.03 14.16 94.62L14.16 20.17C14.16 16.76 16.92 13.99 20.33 13.99Z"
        fill="#FFFFFF" fill-opacity="1.000000" fill-rule="evenodd" />
    <path id="矩形"
        d="M20.3701 13.9999L88.624 13.9999L89.01 15.1953L88.6494 15.1998C83.4832 15.3343 83.5078 18.4558 83.5784 27.3533C83.5864 28.3734 83.595 29.4695 83.5964 30.6457L83.5967 94.7332C83.5967 98.0837 80.8176 100.8 77.3896 100.8L20.3701 100.8C16.9421 100.8 14.1631 98.0837 14.1631 94.7332L14.1631 20.0665C14.1631 16.716 16.9421 13.9999 20.3701 13.9999ZM15.4531 20.0665C15.4531 17.4126 17.6543 15.2611 20.3699 15.2611L84.3958 15.2628C83.7549 15.819 83.281 16.5607 82.9536 17.5081C82.47 18.9081 82.3086 20.2378 82.2808 23.616L82.2769 25.3833L82.3035 29.7987L82.3059 94.7332C82.3059 97.3871 80.1045 99.5386 77.3892 99.5386L20.3699 99.5386C17.6543 99.5386 15.4531 97.3871 15.4531 94.7332L15.4531 20.0665Z"
        clip-rule="evenodd" fill="#818181" fill-opacity="1.000000" fill-rule="evenodd" />
    <path id="路径备份-3"
        d="M77.7 100.8C79.61 100.8 58.99 100.8 15.86 100.8C10.96 100.8 7 96.83 7 91.93L7 84.01C7 83.49 7.42 83.06 7.95 83.06L70.63 83.06C71.16 83.06 71.58 83.49 71.58 84.01C71.58 87.49 71.58 90.96 71.58 94.44C71.58 96.72 73.17 99.55 76.55 99.55C78.68 99.55 76.67 100.8 77.7 100.8Z"
        fill="#FFFFFF" fill-opacity="1.000000" fill-rule="evenodd" />
    <path id="路径备份-3"
        d="M70.6318 83.0671C71.1594 83.0671 71.5869 83.485 71.5869 84.0005L71.5869 94.4444C71.5869 96.6768 73.1042 99.436 76.3428 99.5524L76.5564 99.5562C77.8093 99.5562 77.626 99.9882 77.4756 100.343C77.3706 100.59 77.2815 100.8 77.7061 100.8L16.0715 100.8C11.0613 100.8 6.99951 96.8307 6.99951 91.9338L6.99951 84.0005C6.99951 83.485 7.427 83.0671 7.95435 83.0671L70.6318 83.0671ZM8.29053 84.3267L70.2966 84.3267L70.2969 94.4427L70.2991 94.6143C70.3472 96.5544 71.2087 98.3509 72.6643 99.5056L72.7053 99.5375L16.072 99.5375L15.8772 99.5352C11.6697 99.4342 8.29053 96.0688 8.29053 91.9321L8.29053 84.3267Z"
        clip-rule="evenodd" fill="#818181" fill-opacity="1.000000" fill-rule="evenodd" />
    <path id="Fill-1"
        d="M34.07 22.19C27.83 22.19 22.75 27.16 22.75 33.25C22.75 39.35 27.83 44.32 34.07 44.32C40.3 44.32 45.38 39.35 45.38 33.25C45.38 27.16 40.3 22.19 34.07 22.19Z"
        fill="#1476FF" fill-opacity="1.000000" fill-rule="evenodd" />
    <path id="形状结合"
        d="M38.31 28.84C38.71 29.24 38.65 29.93 38.18 30.39L35.57 32.95L38.18 35.51C38.63 35.94 38.7 36.58 38.37 36.99L38.31 37.06C37.9 37.46 37.19 37.4 36.72 36.94L34.1 34.38L31.49 36.94C31.01 37.4 30.3 37.46 29.9 37.06C29.49 36.66 29.55 35.97 30.02 35.51L32.64 32.95L30.02 30.39C29.57 29.96 29.5 29.32 29.83 28.91L29.9 28.84C30.3 28.44 31.01 28.5 31.49 28.96L34.1 31.52L36.72 28.96C37.19 28.5 37.9 28.44 38.31 28.84Z"
        fill="#FFFFFF" fill-opacity="1.000000" fill-rule="evenodd" />
    <path id="形状结合"
        d="M38.3096 28.8433C38.7144 29.239 38.6594 29.9346 38.1875 30.3961L35.5718 32.9534L38.1875 35.5113C38.6301 35.944 38.7058 36.5825 38.3801 36.9866L38.3096 37.0641C37.905 37.4597 37.1936 37.4062 36.7214 36.9447L34.1057 34.3871L31.4895 36.9447C31.0176 37.4062 30.3059 37.4597 29.9014 37.0641C29.4968 36.6685 29.5515 35.9729 30.0237 35.5113L32.6389 32.9534L30.0237 30.3961C29.5811 29.9635 29.5051 29.325 29.8308 28.9209L29.9014 28.8434C30.3059 28.4477 31.0176 28.5013 31.4895 28.9628L34.1057 31.5197L36.7214 28.9628C37.1936 28.5013 37.905 28.4477 38.3096 28.8433ZM30.4766 29.3516C30.5288 29.3024 30.7583 29.3196 30.9463 29.5035L34.106 32.5916L37.2651 29.5035C37.4531 29.3196 37.6829 29.3023 37.7664 29.384C37.8457 29.4616 37.8289 29.6747 37.6443 29.8554L34.4756 32.9533L37.644 36.052C37.8184 36.2222 37.8445 36.4279 37.7759 36.5128L37.7351 36.5559C37.6829 36.6051 37.4531 36.5878 37.2651 36.4039L34.106 33.3149L30.9463 36.4039C30.7583 36.5878 30.5286 36.6051 30.4451 36.5234C30.3657 36.4458 30.3826 36.2327 30.5674 36.052L33.7356 32.9533L30.5674 29.8554C30.3933 29.6852 30.3672 29.4795 30.4355 29.3947L30.4766 29.3516Z"
        clip-rule="evenodd" fill="#FFFFFF" fill-opacity="1.000000" fill-rule="evenodd" />
    <path id="Fill-1"
        d="M91.98 78.09L88.4 74.59C88.09 74.29 88.09 73.8 88.4 73.5C88.7 73.2 89.2 73.2 89.51 73.5L93.09 77.01C93.4 77.31 93.4 77.79 93.09 78.09C92.94 78.24 92.74 78.32 92.54 78.32C92.34 78.32 92.14 78.24 91.98 78.09Z"
        fill="#818181" fill-opacity="1.000000" fill-rule="evenodd" />
    <path id="Fill-1"
        d="M89.51 73.5L93.09 77.01C93.4 77.31 93.4 77.79 93.09 78.09C92.94 78.24 92.74 78.32 92.54 78.32C92.34 78.32 92.14 78.24 91.98 78.09L88.4 74.59C88.09 74.29 88.09 73.8 88.4 73.5C88.7 73.2 89.2 73.2 89.51 73.5Z"
        fill="#818181" fill-opacity="1.000000" fill-rule="evenodd" />
    <path id="矩形"
        d="M92.3589 77.3622C93.3684 76.3616 94.9844 76.3504 95.98 77.3371L103.173 84.4643C104.123 85.4058 104.152 86.9293 103.263 87.9314L103.148 88.0529C102.139 89.0535 100.522 89.0647 99.5269 88.078L92.334 80.9508C91.3838 80.0092 91.3545 78.4858 92.2437 77.4837L92.3589 77.3622ZM93.4229 78.4483L93.4292 78.4419C93.8369 78.0378 94.4895 78.0333 94.8916 78.4318L102.084 85.559C102.471 85.9422 102.47 86.5707 102.081 86.9629L101.996 87.0405C101.591 87.3725 100.991 87.3544 100.612 86.9794L93.4194 79.8522C93.0327 79.4689 93.0342 78.8404 93.4229 78.4483Z"
        clip-rule="evenodd" fill="#818181" fill-opacity="1.000000" fill-rule="evenodd" />
    <path id="矩形"
        d="M96.01 77.3232C95.0259 76.3391 93.4119 76.3575 92.405 77.3645L92.3042 77.4707C91.3979 78.4819 91.4136 80.0193 92.3638 80.9695L99.4912 88.0972C100.475 89.0813 102.09 89.0628 103.096 88.0559L103.197 87.9496C104.104 86.9384 104.088 85.401 103.138 84.4508L96.01 77.3232ZM93.2761 80.0538C92.7842 79.5617 92.7932 78.7547 93.2969 78.2513C93.8003 77.7478 94.6072 77.7386 95.0994 78.2306L102.227 85.3583C102.719 85.8503 102.71 86.6573 102.206 87.1608C101.703 87.6643 100.896 87.6735 100.404 87.1814L93.2761 80.0538Z"
        clip-rule="evenodd" fill="#818181" fill-opacity="1.000000" fill-rule="evenodd" />
    <path id="路径"
        d="M77.32 43.41C87.27 43.41 95.37 51.33 95.37 61.05C95.37 70.78 87.27 78.69 77.32 78.69C67.37 78.69 59.27 70.78 59.27 61.05C59.27 51.33 67.37 43.41 77.32 43.41Z"
        fill="#FFFFFF" fill-opacity="1.000000" fill-rule="evenodd" />
    <path id="路径"
        d="M95.3748 61.0587C95.3748 51.3318 87.2783 43.4187 77.3262 43.4187C67.3743 43.4187 59.2778 51.3318 59.2778 61.0587C59.2778 70.7856 67.3743 78.6987 77.3262 78.6987C87.2783 78.6987 95.3748 70.7856 95.3748 61.0587ZM60.8206 61.0573C60.8206 52.1745 68.2224 44.9401 77.325 44.9401C86.4275 44.9401 93.8293 52.1745 93.8293 61.0573C93.8293 69.94 86.4275 77.1745 77.325 77.1745C68.2224 77.1745 60.8206 69.94 60.8206 61.0573Z"
        clip-rule="evenodd" fill="#818181" fill-opacity="1.000000" fill-rule="evenodd" />
    <path id="路径"
        d="M95.3748 61.0587C95.3748 51.3318 87.2783 43.4187 77.3262 43.4187C67.3743 43.4187 59.2778 51.3318 59.2778 61.0587C59.2778 70.7856 67.3743 78.6987 77.3262 78.6987C87.2783 78.6987 95.3748 70.7856 95.3748 61.0587ZM60.5659 61.0587C60.5659 52.0277 68.085 44.6787 77.3252 44.6787C86.5652 44.6787 94.0845 52.0277 94.0845 61.0587C94.0845 70.0897 86.5652 77.4387 77.3252 77.4387C68.085 77.4387 60.5659 70.0897 60.5659 61.0587Z"
        clip-rule="evenodd" fill="#818181" fill-opacity="1.000000" fill-rule="evenodd" />
    <path id="路径"
        d="M95.3748 61.0587C95.3748 51.3318 87.2783 43.4187 77.3262 43.4187L77.0283 43.4211C67.2131 43.5771 59.2778 51.4291 59.2778 61.0587C59.2778 70.7856 67.3743 78.6987 77.3262 78.6987L77.6243 78.6963C87.4395 78.5403 95.3748 70.6883 95.3748 61.0587ZM60.5659 61.0587C60.5659 52.0277 68.085 44.6787 77.3252 44.6787C86.5652 44.6787 94.0845 52.0277 94.0845 61.0587C94.0845 70.0897 86.5652 77.4387 77.3252 77.4387C68.085 77.4387 60.5659 70.0897 60.5659 61.0587Z"
        clip-rule="evenodd" fill="#818181" fill-opacity="1.000000" fill-rule="evenodd" />
    <circle id="椭圆形备份" cx="33.599854" cy="33.599899" r="11.200000" fill="#1576FF" fill-opacity="1.000000" />
    <path id="路径-20"
        d="M38.12 37C38.42 37.3 38.43 37.78 38.13 38.09C37.83 38.39 37.34 38.39 37.04 38.09L29.13 30.26C28.83 29.96 28.83 29.47 29.13 29.17C29.43 28.87 29.92 28.87 30.22 29.17L38.12 37Z"
        fill="#FFFFFF" fill-opacity="1.000000" fill-rule="evenodd" />
    <path id="路径-20"
        d="M38.09 29.13C38.39 29.43 38.39 29.92 38.09 30.22L30.26 38.12C29.96 38.42 29.47 38.43 29.17 38.13C28.87 37.83 28.86 37.34 29.16 37.04L37 29.13C37.3 28.83 37.78 28.83 38.09 29.13Z"
        fill="#FFFFFF" fill-opacity="1.000000" fill-rule="evenodd" />
</svg>