<svg viewBox="0 0 16 16" fill="none" xmlns="http://www.w3.org/2000/svg" width="16" height="16">
  <circle cx="8" cy="8" r="7" fill="var(--tr-color-error, #F23030)" />
  <path
    d="M10.6253 11.0998C10.497 11.0998 10.3867 11.0532 10.2943 10.96L8.00033 8.66601L5.70635 10.96C5.61396 11.0532 5.50371 11.0998 5.3756 11.0998C5.24749 11.0998 5.13724 11.0532 5.04486 10.96C4.95161 10.8676 4.90498 10.7574 4.90498 10.6293C4.90498 10.5012 4.95161 10.3909 5.04486 10.2985L7.33884 8.00457L5.04486 5.71059C4.95161 5.6182 4.90498 5.50795 4.90498 5.37984C4.90498 5.25173 4.95161 5.14148 5.04486 5.04909C5.13724 4.95584 5.24749 4.90921 5.3756 4.90921C5.50371 4.90921 5.61396 4.95584 5.70635 5.04909L8.00033 7.34308L10.2943 5.04909C10.3867 4.95584 10.497 4.90921 10.6253 4.90921C10.7534 4.90921 10.8636 4.95584 10.956 5.04909C11.0493 5.14148 11.0959 5.25173 11.0959 5.37984C11.0959 5.50795 11.0493 5.6182 10.956 5.71059L8.66205 8.00457L10.956 10.2985C11.0493 10.3909 11.0959 10.5012 11.0959 10.6293C11.0959 10.7574 11.0493 10.8676 10.956 10.96C10.8636 11.0532 10.7534 11.0998 10.6253 11.0998Z"
    fill="#FFF"
  />
</svg>
