<svg width="1em" height="1em" viewBox="0 0 20 20" fill="none" xmlns="http://www.w3.org/2000/svg" xmlns:xlink="http://www.w3.org/1999/xlink">

	<path id="矩形备份-6" d="M16.74 5.62L17.16 5.62L17.16 6.04L16.74 6.04L16.74 5.62Z" fill="#FFFFFF" fill-opacity="1.000000" fill-rule="evenodd"/>
	<path id="矩形备份-23" d="M12.97 1.66L12.97 5.08C12.96 5.61 13.39 6.04 13.92 6.04L17.34 6.04L17.34 16.66C17.34 17.58 16.59 18.33 15.67 18.33L4.42 18.33C3.5 18.33 2.76 17.58 2.76 16.66L2.76 3.33C2.76 2.41 3.5 1.66 4.42 1.66L12.97 1.66L12.97 1.66Z" fill="#3B8CFA" fill-opacity="1.000000" fill-rule="evenodd"/>
	<path id="矩形备份-24" d="M12.91 1.66L17.29 6.04L13.86 6.04C13.34 6.04 12.91 5.61 12.91 5.09L12.91 1.66L12.91 1.66Z" fill="#ADCDF9" fill-opacity="1.000000" fill-rule="evenodd"/>
	<path id="路径-4" d="M7.39 10L8.45 14.24C8.48 14.34 8.61 14.34 8.65 14.25L9.92 10.29C9.95 10.2 10.08 10.2 10.11 10.29L11.37 14.24C11.4 14.34 11.54 14.33 11.57 14.23L12.6 10" stroke="#FFFFFF" stroke-opacity="1.000000" stroke-width="0.722222" stroke-linejoin="round" stroke-linecap="round"/>
</svg>
