<svg width="1em" height="1em" viewBox="0 0 20 20" fill="none" xmlns="http://www.w3.org/2000/svg" xmlns:xlink="http://www.w3.org/1999/xlink">
	<path id="矩形备份-47" d="M12.91 1.66L17.29 6.04L13.86 6.04C13.34 6.04 12.91 5.61 12.91 5.09L12.91 1.66L12.91 1.66Z" fill="#FFBFBE" fill-opacity="1.000000" fill-rule="evenodd"/>
	<path id="矩形备份-23" d="M12.97 1.66L12.97 5.08C12.96 5.61 13.39 6.04 13.92 6.04L17.34 6.04L17.34 16.66C17.34 17.58 16.59 18.33 15.67 18.33L4.42 18.33C3.5 18.33 2.76 17.58 2.76 16.66L2.76 3.33C2.76 2.41 3.5 1.66 4.42 1.66L12.97 1.66L12.97 1.66Z" fill="#FF4C48" fill-opacity="1.000000" fill-rule="evenodd"/>
	<path id="多边形" d="M11.67 13.81L8.38 13.81L10.02 10.96L11.67 13.81Z" stroke="#FFFFFF" stroke-opacity="1.000000" stroke-width="0.541667" stroke-linejoin="round"/>
	<path id="路径" d="M10.07 10.71C10.48 10.23 10.68 9.87 10.68 9.63C10.68 9.26 10.38 8.95 10.02 8.95C9.66 8.95 9.36 9.26 9.36 9.63C9.36 9.87 9.57 10.23 9.97 10.71" stroke="#FFFFFF" stroke-opacity="1.000000" stroke-width="0.541667" stroke-linejoin="round" stroke-linecap="round"/>
	<path id="路径备份" d="M11.87 13.96C12.08 14.55 12.29 14.91 12.49 15.03C12.82 15.22 13.23 15.11 13.41 14.8C13.59 14.48 13.48 14.08 13.15 13.89C12.94 13.77 12.53 13.77 11.92 13.88" stroke="#FFFFFF" stroke-opacity="1.000000" stroke-width="0.541667" stroke-linejoin="round" stroke-linecap="round"/>
	<path id="路径备份-2" d="M8.13 13.88C7.51 13.77 7.1 13.77 6.89 13.89C6.57 14.08 6.45 14.48 6.63 14.8C6.81 15.11 7.22 15.22 7.55 15.03C7.76 14.91 7.97 14.55 8.17 13.96" stroke="#FFFFFF" stroke-opacity="1.000000" stroke-width="0.541667" stroke-linejoin="round" stroke-linecap="round"/>
</svg>
