<svg width="1em" height="1em" viewBox="0 0 20 20" fill="none" xmlns="http://www.w3.org/2000/svg" xmlns:xlink="http://www.w3.org/1999/xlink">
	<path id="矩形备份-77" d="M12.91 1.66L17.29 6.04L13.86 6.04C13.34 6.04 12.91 5.61 12.91 5.08L12.91 1.66L12.91 1.66Z" fill="#DBDBDB" fill-opacity="1.000000" fill-rule="evenodd"/>
	<path id="矩形备份-23" d="M12.97 1.66L12.97 5.08C12.96 5.61 13.39 6.04 13.92 6.04L17.34 6.04L17.34 16.66C17.34 17.58 16.59 18.33 15.67 18.33L4.42 18.33C3.5 18.33 2.76 17.58 2.76 16.66L2.76 3.33C2.76 2.41 3.5 1.66 4.42 1.66L12.97 1.66L12.97 1.66Z" fill="#C2C2C2" fill-opacity="1.000000" fill-rule="evenodd"/>
	<path id="多边形 1" d="M6.8 8.95L6.8 12.7L10.05 14.58L13.29 12.7L13.29 8.95L10.05 7.08L6.8 8.95Z" stroke="#FFFFFF" stroke-opacity="1.000000" stroke-width="0.666667" stroke-linejoin="round"/>
	<path id="多边形 2" d="M6.8 8.75L10.05 10.62L13.29 8.75" stroke="#FFFFFF" stroke-opacity="1.000000" stroke-width="0.666667" stroke-linejoin="round"/>
	<path id="矢量 3" d="M10.05 10.75L10.05 14.58" stroke="#FFFFFF" stroke-opacity="1.000000" stroke-width="0.666667" stroke-linejoin="round" stroke-linecap="round"/>
</svg>
