<svg width="1em" height="1em" viewBox="0 0 20 20" fill="none" xmlns="http://www.w3.org/2000/svg" xmlns:xlink="http://www.w3.org/1999/xlink">
	<g opacity="0.000000">
		<rect id="Rectangle" width="20.000000" height="20.000000" fill="#000000" fill-opacity="1.000000"/>
	</g>
	<path id="Path" d="M17.61 6.14L17.61 16.66C17.61 17.71 16.76 18.57 15.71 18.57L4.28 18.57C3.23 18.57 2.38 17.71 2.38 16.66L2.38 3.33C2.38 2.28 3.23 1.42 4.28 1.42L12.9 1.42L17.61 6.14Z" fill="#FE4A4A" fill-opacity="1.000000" fill-rule="evenodd"/>
	<circle id="椭圆形" cx="10.000153" cy="10.833160" r="4.166667" fill="#D8D8D8" fill-opacity="0"/>
	<circle id="椭圆形" cx="10.000153" cy="10.833160" r="3.766667" stroke="#FFFFFF" stroke-opacity="1.000000" stroke-width="0.800000"/>
	<path id="直线 5" d="M8.25 13.96L8 14.3L7.35 13.84L7.6 13.5L8.25 13.96ZM11.74 7.7L11.99 7.35L12.64 7.82L12.39 8.16L11.74 7.7Z" fill="#D8D8D8" fill-opacity="0" fill-rule="nonzero"/>
	<path id="直线 5" d="M7.91 13.75L12.08 7.91" stroke="#FFFFFF" stroke-opacity="1.000000" stroke-width="0.800000" stroke-linecap="square"/>
	<path id="Path" d="M12.9 5.19L12.9 1.42L17.61 6.14L13.85 6.14C13.33 6.14 12.9 5.71 12.9 5.19L12.9 5.19Z" fill="#FF8383" fill-opacity="1.000000" fill-rule="evenodd"/>
</svg>
