<svg width="1em" height="1em" viewBox="0 0 20 20" fill="none" xmlns="http://www.w3.org/2000/svg" xmlns:xlink="http://www.w3.org/1999/xlink">
	<path id="矩形备份-24" d="M12.91 1.66L17.29 6.04L13.86 6.04C13.34 6.04 12.91 5.61 12.91 5.09L12.91 1.66L12.91 1.66Z" fill="#FEC9B0" fill-opacity="1.000000" fill-rule="evenodd"/>
	<path id="矩形备份-23" d="M12.97 1.66L12.97 5.08C12.96 5.61 13.39 6.04 13.92 6.04L17.34 6.04L17.34 16.66C17.34 17.58 16.59 18.33 15.67 18.33L4.42 18.33C3.5 18.33 2.76 17.58 2.76 16.66L2.76 3.33C2.76 2.41 3.5 1.66 4.42 1.66L12.97 1.66L12.97 1.66Z" fill="#FF7737" fill-opacity="1.000000" fill-rule="evenodd"/>
	<path id="路径-7" d="M10.27 9.27L8.35 9.27C8.22 9.27 8.12 9.37 8.12 9.5L8.12 14.94" stroke="#FFFFFF" stroke-opacity="1.000000" stroke-width="0.767361" stroke-linejoin="round" stroke-linecap="round"/>
	<path id="路径" d="M8.47 12.46L10.29 12.46C11.17 12.46 11.88 11.75 11.88 10.87C11.88 9.99 11.17 9.27 10.29 9.27" stroke="#FFFFFF" stroke-opacity="1.000000" stroke-width="0.767361" stroke-linejoin="round" stroke-linecap="round"/>
</svg>
