<svg width="1em" height="1em" viewBox="0 0 20 20" fill="none" xmlns="http://www.w3.org/2000/svg" xmlns:xlink="http://www.w3.org/1999/xlink">
	<path id="形状结合" d="M1.66 4.58C1.66 3.66 2.41 2.91 3.33 2.91L9.28 2.91C9.81 2.91 10.3 3.16 10.61 3.58L11.05 4.16L16.66 4.16C17.58 4.16 18.33 4.91 18.33 5.83L18.33 15C18.33 15.92 17.58 16.66 16.66 16.66L3.33 16.66C2.41 16.66 1.66 15.92 1.66 15L1.66 4.58Z" fill="#FFB321" fill-opacity="1.000000" fill-rule="evenodd"/>
	<path id="path-1" d="M10.61 3.58L11.66 4.98L11.66 4.98L11.66 7.5L1.66 7.5L1.66 4.58C1.66 3.66 2.41 2.91 3.33 2.91L9.28 2.91C9.81 2.91 10.3 3.16 10.61 3.58Z" fill="#F4A407" fill-opacity="1.000000" fill-rule="evenodd"/>
	<path id="矩形" d="M3.33 4.16L16.66 4.16C17.12 4.16 17.49 4.54 17.49 5L17.49 15C17.49 15.46 17.12 15.83 16.66 15.83L3.33 15.83C2.87 15.83 2.49 15.46 2.49 15L2.49 5C2.49 4.54 2.87 4.16 3.33 4.16Z" fill="#FFFFFF" fill-opacity="1.000000" fill-rule="evenodd"/>
	<path id="矩形" d="M3.33 5.41L6.67 5.41C7.07 5.41 7.45 5.27 7.75 5.01L8.28 4.56C8.58 4.3 8.96 4.16 9.36 4.16L10.83 4.16L10.83 4.16L16.66 4.16C17.58 4.16 18.33 4.91 18.33 5.83L18.33 15C18.33 15.92 17.58 16.66 16.66 16.66L3.33 16.66C2.41 16.66 1.66 15.92 1.66 15L1.66 7.08C1.66 6.16 2.41 5.41 3.33 5.41Z" fill="#FFB219" fill-opacity="1.000000" fill-rule="evenodd"/>
</svg>
