<svg width="1em" height="1em" viewBox="0 0 20 20" fill="none" xmlns="http://www.w3.org/2000/svg"
    xmlns:xlink="http://www.w3.org/1999/xlink">
    <desc>
        Created with Pixso.
    </desc>
    <defs />
    <rect id="矩形" width="20.000000" height="20.000000" fill="#D8D8D8" fill-opacity="0" />
    <rect id="矩形" x="0.416748" y="0.416626" width="19.166666" height="19.166666" stroke="#979797" stroke-opacity="0"
        stroke-width="0.833333" />
    <path id="路径" d="M2.12 4.17L2.12 6.86C2.12 6.93 2.18 6.99 2.25 6.99L4.93 6.99" stroke="#191919"
        stroke-opacity="1.000000" stroke-width="1.250000" stroke-linejoin="round" stroke-linecap="round" />
    <path id="路径"
        d="M1.97 10.09C1.97 14.58 5.6 18.22 10.09 18.22L10.09 18.22C14.58 18.22 18.22 14.58 18.22 10.09C18.22 5.6 14.58 1.97 10.09 1.97C7.08 1.97 4.46 3.6 3.05 6.03"
        stroke="#191919" stroke-opacity="1.000000" stroke-width="1.250000" stroke-linejoin="round"
        stroke-linecap="round" />
    <path id="路径" d="M10.09 5.45L10.09 10.04C10.09 10.08 10.11 10.11 10.13 10.13L13.37 13.37" stroke="#191919"
        stroke-opacity="1.000000" stroke-width="1.250000" stroke-linejoin="round" stroke-linecap="round" />
</svg>