<svg width="36.000000" height="36.000000" viewBox="0 0 36 36" fill="none" xmlns="http://www.w3.org/2000/svg" xmlns:xlink="http://www.w3.org/1999/xlink">
	<desc>
			Created with Pixso.
	</desc>
	<defs/>
	<rect id="矩形" width="36.000000" height="36.000000" fill="#D8D8D8" fill-opacity="0"/>
	<rect id="矩形" x="0.500000" y="0.500000" width="35.000000" height="35.000000" stroke="#979797" stroke-opacity="0" stroke-width="1.000000"/>
	<mask id="mask_558_34052" fill="white">
		<path id="形状结合" d="M24.8647 6.34033L24.8765 6.29529C24.978 5.90442 25.532 5.90161 25.6375 6.2915L25.655 6.35693C25.8301 6.96191 26.3176 7.43347 26.9287 7.5874C27.3254 7.68726 27.3254 8.25098 26.9287 8.35095C26.2969 8.51025 25.7986 9.00854 25.6394 9.64038C25.5396 10.0371 24.9758 10.0371 24.8757 9.64038C24.7166 9.00854 24.2183 8.51025 23.5864 8.3512C23.1897 8.25122 23.1897 7.6875 23.5864 7.58752C24.2053 7.43164 24.697 6.94995 24.8647 6.34033ZM15.3689 9.2561L15.4387 8.98706C15.6418 8.20508 16.75 8.19958 16.9609 8.97949L17.0735 9.39624C18.2734 13.547 21.615 16.7795 25.8079 17.8352C26.6016 18.035 26.6016 19.1625 25.8081 19.3624C21.4719 20.4552 18.0571 23.8704 16.9656 28.2061C16.7656 28.9995 15.6382 28.9996 15.4382 28.2062C14.3455 23.8701 10.9304 20.4552 6.59473 19.3635C5.80127 19.1637 5.80103 18.0363 6.59448 17.8363C10.8413 16.7661 14.2107 13.4655 15.3689 9.2561ZM25.418 24.1724L25.3992 24.2444C25.1309 25.2197 24.3442 25.9904 23.354 26.2399C22.7192 26.3998 22.7192 27.3019 23.354 27.4617C24.365 27.7162 25.1624 28.5134 25.417 29.5244C25.5769 30.1592 26.479 30.1591 26.6387 29.5243C26.8933 28.5134 27.6904 27.7161 28.7017 27.4613C29.3364 27.3014 29.3362 26.3994 28.7014 26.2396C27.7239 25.9934 26.9436 25.2388 26.6638 24.2709L26.6357 24.1663C26.467 23.5424 25.5803 23.5468 25.418 24.1724Z" clip-rule="evenodd" fill="" fill-opacity="1.000000" fill-rule="evenodd"/>
	</mask>
	<path id="形状结合" d="M24.8647 6.34033L24.8765 6.29529C24.978 5.90442 25.532 5.90161 25.6375 6.2915L25.655 6.35693C25.8301 6.96191 26.3176 7.43347 26.9287 7.5874C27.3254 7.68726 27.3254 8.25098 26.9287 8.35095C26.2969 8.51025 25.7986 9.00854 25.6394 9.64038C25.5396 10.0371 24.9758 10.0371 24.8757 9.64038C24.7166 9.00854 24.2183 8.51025 23.5864 8.3512C23.1897 8.25122 23.1897 7.6875 23.5864 7.58752C24.2053 7.43164 24.697 6.94995 24.8647 6.34033ZM15.3689 9.2561L15.4387 8.98706C15.6418 8.20508 16.75 8.19958 16.9609 8.97949L17.0735 9.39624C18.2734 13.547 21.615 16.7795 25.8079 17.8352C26.6016 18.035 26.6016 19.1625 25.8081 19.3624C21.4719 20.4552 18.0571 23.8704 16.9656 28.2061C16.7656 28.9995 15.6382 28.9996 15.4382 28.2062C14.3455 23.8701 10.9304 20.4552 6.59473 19.3635C5.80127 19.1637 5.80103 18.0363 6.59448 17.8363C10.8413 16.7661 14.2107 13.4655 15.3689 9.2561ZM25.418 24.1724L25.3992 24.2444C25.1309 25.2197 24.3442 25.9904 23.354 26.2399C22.7192 26.3998 22.7192 27.3019 23.354 27.4617C24.365 27.7162 25.1624 28.5134 25.417 29.5244C25.5769 30.1592 26.479 30.1591 26.6387 29.5243C26.8933 28.5134 27.6904 27.7161 28.7017 27.4613C29.3364 27.3014 29.3362 26.3994 28.7014 26.2396C27.7239 25.9934 26.9436 25.2388 26.6638 24.2709L26.6357 24.1663C26.467 23.5424 25.5803 23.5468 25.418 24.1724Z" clip-rule="evenodd" fill="#1476FF" fill-opacity="1.000000" fill-rule="evenodd" mask="url(#mask_558_34052)"/>
	<path id="形状结合" d="" clip-rule="evenodd" fill="#979797" fill-opacity="0.000000" fill-rule="evenodd"/>
</svg>
