<svg viewBox="0 0 16 16" xmlns="http://www.w3.org/2000/svg" xmlns:xlink="http://www.w3.org/1999/xlink" width="16.000000" height="16.000000" fill="none">
	<rect id="推荐-recommended" width="16.000000" height="16.000000" x="0.000000" y="0.000000" />
	<path id="c" d="M2.84984 14.6704C2.02984 14.6704 1.35984 14.0204 1.33984 13.2104L1.33984 13.1004L1.33984 8.11037C1.33984 7.28037 1.97984 6.60037 2.78984 6.54037L2.89984 6.54037L4.46984 6.54037L5.46984 5.62037C5.89984 5.23037 6.18984 4.72037 6.32984 4.16037L6.35984 4.01037L6.63984 2.43037C6.78984 1.59037 7.68984 1.12037 8.46984 1.47037C9.44984 1.91037 10.0298 2.94037 9.92984 4.01037L9.90984 4.15037L9.70984 5.46037C9.70984 5.46037 9.30984 7.14037 9.14984 7.22037C8.93984 7.32037 8.86984 7.54037 8.61984 7.50037C8.36984 7.46037 8.04984 7.22037 8.21984 6.82037L8.56984 5.86037C8.56984 5.86037 8.71984 5.30037 8.71984 5.26037L8.90984 4.00037C9.00984 3.31037 8.63984 2.64037 8.01984 2.37037C7.86984 2.30037 7.68984 2.38037 7.62984 2.54037L7.30984 4.27037C7.17984 5.02037 6.80984 5.71037 6.25984 6.23037L6.12984 6.36037L5.14984 7.26037L5.14984 13.6704L11.7998 13.6704C12.2798 13.6704 12.7098 13.3504 12.8398 12.8804L12.8598 12.7804L13.6298 8.86037C13.7598 8.20037 13.2898 7.59037 12.6498 7.54037L8.61984 7.50037C8.33984 7.50037 8.14984 7.32037 8.14984 7.04037C8.14984 6.79037 8.33984 6.58037 8.57984 6.54037L12.5998 6.54037C13.8698 6.54037 14.8398 7.68037 14.6298 8.94037L14.6098 9.06037L13.8398 12.9804C13.6498 13.9204 12.8598 14.6104 11.9198 14.6704L11.7998 14.6704L2.84984 14.6704ZM4.14984 7.54037L2.88984 7.54037C2.60984 7.54037 2.36984 7.76037 2.33984 8.04037L2.33984 13.1004C2.33984 13.3904 2.54984 13.6304 2.82984 13.6704L4.15984 13.6704L4.14984 7.54037Z" fill="currentColor" fill-rule="nonzero" />
</svg>
