<svg width="16" height="16" viewBox="0 0 16 16" fill="none" xmlns="http://www.w3.org/2000/svg"
    xmlns:xlink="http://www.w3.org/1999/xlink">
    <defs>
        <clipPath id="clip597_81525">
            <rect id="推荐-recommended" width="16.000000" height="16.000000" fill="white" fill-opacity="0" />
        </clipPath>
    </defs>
    <g clip-path="url(#clip597_81525)">
        <path id="c"
            d="M2.85 14.66C2.03 14.66 1.35 14.01 1.33 13.21L1.33 13.09L1.33 8.11C1.33 7.28 1.98 6.59 2.78 6.54L2.89 6.54L4.46 6.54L5.46 5.62C5.89 5.23 6.19 4.72 6.32 4.16L6.35 4L6.64 2.42C6.78 1.58 7.69 1.12 8.46 1.47C9.44 1.91 10.03 2.93 9.92 4L9.91 4.15L9.71 5.46C9.71 5.46 9.3 7.14 9.14 7.22C8.94 7.32 8.87 7.54 8.62 7.5C8.37 7.46 8.05 7.22 8.21 6.82L8.57 5.86C8.57 5.86 8.71 5.3 8.71 5.25L8.91 4C9.01 3.31 8.64 2.64 8.01 2.37C7.87 2.3 7.69 2.38 7.62 2.54L7.3 4.26C7.17 5.01 6.8 5.71 6.26 6.23L6.12 6.36L5.14 7.25L5.14 13.66L11.8 13.66C12.28 13.66 12.71 13.34 12.83 12.88L12.85 12.78L13.62 8.86C13.76 8.2 13.28 7.58 12.64 7.54L8.62 7.5C8.33 7.5 8.14 7.32 8.14 7.04C8.14 6.79 8.33 6.58 8.57 6.54L12.6 6.54C13.87 6.54 14.83 7.67 14.62 8.93L14.6 9.06L13.83 12.98C13.64 13.91 12.85 14.61 11.91 14.66L11.8 14.66L2.85 14.66ZM4.14 7.54L2.89 7.54C2.6 7.54 2.37 7.75 2.33 8.04L2.33 13.09C2.33 13.39 2.55 13.63 2.82 13.66L4.16 13.66L4.14 7.54Z"
            fill="#191919" fill-opacity="1.000000" fill-rule="nonzero" />
    </g>
</svg>