<svg width="1em" height="1em" viewBox="0 0 20 20" fill="none" xmlns="http://www.w3.org/2000/svg" xmlns:xlink="http://www.w3.org/1999/xlink">
    <defs>
        <clipPath id="clip545_56691">
            <rect id="更多-more" width="20.000000" height="20.000000" fill="white" fill-opacity="0" />
        </clipPath>
    </defs>
    <rect id="组件集 2" width="20.000000" height="20.000000" fill="#FFFFFF" fill-opacity="0" />
    <g clip-path="url(#clip545_56691)">
        <path id="形状结合"
            d="M10 1.25C14.83 1.25 18.75 5.16 18.75 10C18.75 14.83 14.83 18.75 10 18.75C5.16 18.75 1.25 14.83 1.25 10C1.25 5.16 5.16 1.25 10 1.25ZM10 2.5C5.85 2.5 2.5 5.85 2.5 10C2.5 14.14 5.85 17.5 10 17.5C14.14 17.5 17.5 14.14 17.5 10C17.5 5.85 14.14 2.5 10 2.5ZM6.06 8.87C6.68 8.87 7.18 9.37 7.18 10C7.18 10.62 6.68 11.12 6.06 11.12C5.44 11.12 4.93 10.62 4.93 10C4.93 9.37 5.44 8.87 6.06 8.87ZM10 8.87C10.62 8.87 11.12 9.37 11.12 10C11.12 10.62 10.62 11.12 10 11.12C9.37 11.12 8.87 10.62 8.87 10C8.87 9.37 9.37 8.87 10 8.87ZM13.93 8.87C14.55 8.87 15.06 9.37 15.06 10C15.06 10.62 14.55 11.12 13.93 11.12C13.31 11.12 12.81 10.62 12.81 10C12.81 9.37 13.31 8.87 13.93 8.87Z"
            fill="#191919" fill-opacity="1.000000" fill-rule="nonzero" />
    </g>
</svg>