<svg viewBox="0 0 20 20" fill="none" xmlns="http://www.w3.org/2000/svg" xmlns:xlink="http://www.w3.org/1999/xlink">
	<desc>
			Created with Pixso.
	</desc>
	<defs/>
	<rect id="组件集 2" width="20.000000" height="20.000000" fill="#FFFFFF" fill-opacity="0"/>
	<rect id="新建对话" width="20.000000" height="20.000000" fill="#FFFFFF" fill-opacity="0"/>
	<mask id="mask_545_56667" fill="white">
		<path id="形状结合" d="M10 1.87488C5.5127 1.87488 1.875 5.51257 1.875 9.99988C1.875 12.1185 2.68579 14.0477 4.01416 15.4941L2.82544 17.5499C2.68091 17.7999 2.86133 18.1125 3.15015 18.1125L9.54956 18.1125C9.69873 18.1207 9.84888 18.1249 10 18.1249C14.4873 18.1249 18.125 14.4872 18.125 9.99988C18.125 5.51257 14.4873 1.87488 10 1.87488Z" clip-rule="evenodd" fill="" fill-opacity="1.000000" fill-rule="evenodd"/>
	</mask>
	<path id="形状结合" d="M10 2.49988C8.98242 2.49988 8.00952 2.69629 7.08081 3.08899C6.18359 3.46851 5.38892 4.00439 4.69678 4.69653C4.00439 5.38879 3.46851 6.18347 3.08911 7.08069C2.69629 8.00928 2.5 8.9823 2.5 9.99988C2.5 10.9609 2.67578 11.8837 3.02734 12.7683C3.36694 13.6229 3.84937 14.3906 4.47461 15.0714C4.68164 15.2969 4.7085 15.5421 4.55542 15.8071L3.36646 17.8628C3.38916 17.8234 3.40015 17.78 3.39941 17.7327C3.39868 17.6893 3.3877 17.6494 3.3667 17.6127C3.34546 17.576 3.31641 17.5465 3.2793 17.5242C3.23853 17.4998 3.19556 17.4875 3.15015 17.4875L9.54956 17.4875C9.56104 17.4875 9.57227 17.4879 9.58374 17.4885C9.72217 17.4961 9.86084 17.4999 10 17.4999C11.0176 17.4999 11.9905 17.3035 12.9192 16.9108C13.8164 16.5312 14.6111 15.9954 15.3032 15.3032C15.9956 14.611 16.5315 13.8163 16.9109 12.9191C17.3037 11.9905 17.5 11.0175 17.5 9.99988C17.5 8.9823 17.3037 8.00928 16.9109 7.08069C16.5315 6.18347 15.9956 5.38879 15.3032 4.69653C14.6111 4.00439 13.8164 3.46851 12.9192 3.08899C11.9905 2.69629 11.0176 2.49988 10 2.49988ZM10 1.24988C11.1865 1.24988 12.3218 1.47913 13.406 1.93774C14.4529 2.38062 15.3801 3.00549 16.1873 3.81274C16.9944 4.61987 17.6194 5.54688 18.062 6.59375C18.5208 7.67798 18.75 8.81335 18.75 9.99988C18.75 11.1864 18.5208 12.3218 18.062 13.406C17.6194 14.4529 16.9944 15.3799 16.1873 16.187C15.3801 16.9943 14.4529 17.6191 13.406 18.062C12.3218 18.5206 11.1865 18.7499 10 18.7499C9.83813 18.7499 9.67651 18.7455 9.51538 18.7367L9.54956 18.1125L9.54956 18.7375L3.15015 18.7375C2.96436 18.7375 2.79272 18.6902 2.63525 18.5955C2.48755 18.5067 2.37036 18.3873 2.28394 18.2373C2.19727 18.0873 2.15259 17.9261 2.14966 17.7539C2.14648 17.5701 2.19141 17.3977 2.28442 17.2369L3.47314 15.1813L4.01416 15.4941L3.55396 15.917C2.82471 15.123 2.26196 14.2273 1.86572 13.23C1.45532 12.1971 1.25 11.1204 1.25 9.99988C1.25 8.81335 1.47925 7.67798 1.93799 6.59375C2.38062 5.54688 3.00562 4.61987 3.81274 3.81274C4.61987 3.00549 5.54712 2.38062 6.59399 1.93774C7.67822 1.47913 8.81348 1.24988 10 1.24988Z" fill="#191919" fill-opacity="1.000000" fill-rule="nonzero"/>
	<path id="路径 6" d="M6.87 9.99L13.12 9.99" stroke="#191919" stroke-opacity="1.000000" stroke-width="1.250000" stroke-linejoin="round" stroke-linecap="round"/>
	<path id="路径 6" d="M10 6.87L10 13.12" stroke="#191919" stroke-opacity="1.000000" stroke-width="1.250000" stroke-linejoin="round" stroke-linecap="round"/>
</svg>