<svg width="1em" height="1em" viewBox="0 0 16 16" fill="none" xmlns="http://www.w3.org/2000/svg"
    xmlns:xlink="http://www.w3.org/1999/xlink">
    <defs />
    <path id="形状结合"
        d="M 10.7 1.9 L 7.3 4.7 L 7 4.3 C 6.9 4.3 6.8 4.2 6.8 4.2 L 6.8 4.2 C 6.7 4.1 6.7 4.1 6.6 4.1 C 6.5 4 6.3 4 6.2 4 C 6.1 4 5.9 4 5.8 4.1 C 5.7 4.1 5.6 4.2 5.5 4.3 L 3.5 6.2 C 3.5 6.3 3.4 6.4 3.4 6.4 C 3.4 6.5 3.3 6.5 3.3 6.6 C 3.3 6.7 3.2 6.9 3.2 7 C 3.2 7.1 3.2 7.1 3.3 7.2 C 3.3 7.3 3.3 7.3 3.3 7.4 C 3.4 7.5 3.4 7.6 3.5 7.7 L 5.6 9.7 L 2.2 13.1 C 2 13.3 2 13.6 2.2 13.8 C 2.4 14 2.7 14 2.9 13.8 L 6.3 10.4 L 8.3 12.5 C 8.4 12.6 8.5 12.6 8.6 12.7 C 8.7 12.7 8.7 12.7 8.8 12.7 C 8.9 12.8 8.9 12.8 9 12.8 C 9.1 12.8 9.2 12.8 9.2 12.7 C 9.3 12.7 9.3 12.7 9.4 12.7 C 9.5 12.7 9.5 12.6 9.6 12.6 C 9.6 12.6 9.7 12.5 9.8 12.5 L 11.7 10.5 C 11.8 10.4 11.9 10.3 11.9 10.2 C 12 10.1 12 9.9 12 9.8 C 12 9.7 12 9.6 12 9.6 L 12 9.6 L 12 9.6 C 12 9.5 11.9 9.5 11.9 9.4 C 11.9 9.3 11.8 9.1 11.7 9 L 11.3 8.7 L 14.1 5.3 C 14.2 5.2 14.3 5.1 14.3 5 C 14.4 4.8 14.4 4.7 14.4 4.6 C 14.4 4.5 14.3 4.3 14.3 4.2 C 14.2 4.1 14.2 4 14.1 3.9 L 12.1 1.9 C 12 1.8 11.9 1.8 11.8 1.7 C 11.7 1.7 11.5 1.6 11.4 1.6 C 11.3 1.6 11.2 1.6 11 1.7 C 10.9 1.7 10.8 1.8 10.7 1.9 Z M 7 5.7 L 6.2 5 C 6.2 5 6.2 5 6.2 5 C 6.2 5 6.2 5 6.2 5 C 6.2 5 6.2 5 6.2 5 L 4.2 7 C 4.2 7 4.2 7 4.2 7 C 4.2 7 4.2 7 4.2 7 C 4.2 7 4.2 7 4.2 7 L 6.3 9.1 L 6.9 9.7 L 9 11.8 C 9 11.8 9 11.8 9 11.8 C 9 11.8 9 11.8 9 11.8 L 11 9.8 C 11 9.8 11 9.8 11 9.8 C 11 9.8 11 9.8 11 9.8 C 11 9.8 11 9.8 11 9.8 L 9.9 8.7 L 13.4 4.7 C 13.4 4.6 13.4 4.6 13.4 4.6 L 11.4 2.6 C 11.4 2.6 11.4 2.6 11.3 2.6 L 7.3 6.1 L 7 5.7 Z"
        clip-rule="evenodd" fill="currentColor" fill-rule="evenodd" />
</svg>