<svg width="1em" height="1em" viewBox="0 0 24 24" fill="none" xmlns="http://www.w3.org/2000/svg"
    xmlns:xlink="http://www.w3.org/1999/xlink">
    <defs>
        <clipPath id="clip502_85924">
            <rect id="画板 1678" width="24.000000" height="24.000000" fill="white" fill-opacity="0" />
        </clipPath>
    </defs>
    <rect id="画板 1678" width="24.000000" height="24.000000" fill="none" fill-opacity="1.000000" />
    <g clip-path="url(#clip502_85924)">
        <circle id="椭圆形" r="1.891907" transform="matrix(0.707107 0.707107 -0.707107 0.707107 12.0039 3.67578)"
            fill="#FF9898" fill-opacity="1.000000" />
        <circle id="椭圆形" r="1.204408" transform="matrix(0.707107 0.707107 -0.707107 0.707107 12.0039 3.67578)"
            stroke="#979797" stroke-opacity="0" stroke-width="1.374998" />
        <circle id="椭圆形备份 2" r="1.891907" transform="matrix(0.707107 0.707107 -0.707107 0.707107 3.67969 12.0039)"
            fill="#7CA7FF" fill-opacity="1.000000" />
        <circle id="椭圆形备份 2" r="1.204408" transform="matrix(0.707107 0.707107 -0.707107 0.707107 3.67969 12.0039)"
            stroke="#979797" stroke-opacity="0" stroke-width="1.374998" />
        <circle id="椭圆形备份" r="1.891907" transform="matrix(0.707107 0.707107 -0.707107 0.707107 20.3242 12.002)"
            fill="#FFE664" fill-opacity="1.000000" />
        <circle id="椭圆形备份" r="1.204408" transform="matrix(0.707107 0.707107 -0.707107 0.707107 20.3242 12.002)"
            stroke="#979797" stroke-opacity="0" stroke-width="1.374998" />
        <circle id="椭圆形备份 4" r="1.891907" transform="matrix(0.707107 0.707107 -0.707107 0.707107 12.0039 20.3262)"
            fill="#5BE8E8" fill-opacity="1.000000" />
        <circle id="椭圆形备份 4" r="1.204408" transform="matrix(0.707107 0.707107 -0.707107 0.707107 12.0039 20.3262)"
            stroke="#979797" stroke-opacity="0" stroke-width="1.374998" />
    </g>
</svg>