<svg width="1em" height="1em" fill="currentColor" viewBox="0 0 16 16" xmlns="http://www.w3.org/2000/svg"
    xmlns:xlink="http://www.w3.org/1999/xlink">
    <desc>
        Created with Pixso.
    </desc>
    <defs />
    <path id="矢量 8"
        d="M1.72 7.17C1.72 4.13 4.18 1.67 7.22 1.67C10.26 1.67 12.72 4.13 12.72 7.17C12.72 8.5 12.25 9.72 11.46 10.67L14.2 13.37C14.39 13.57 14.39 13.88 14.2 14.08C14.03 14.26 13.76 14.28 13.56 14.14L10.76 11.38C9.8 12.19 8.57 12.67 7.22 12.67C4.18 12.67 1.72 10.21 1.72 7.17ZM11.72 7.17C11.72 4.69 9.71 2.67 7.22 2.67C4.74 2.67 2.72 4.69 2.72 7.17C2.72 9.66 4.74 11.67 7.22 11.67C9.71 11.67 11.72 9.66 11.72 7.17Z"
        fill="#808080" fill-opacity="1.000000" fill-rule="evenodd" />
</svg>