<svg width="1em" height="1em" viewBox="0 0 14.7168 15.2383" fill="none" xmlns="http://www.w3.org/2000/svg"
	xmlns:xlink="http://www.w3.org/1999/xlink">

	<path id="形状结合"
		d="M11.9795 0.21582L11.9863 0.187256C12.0508 -0.0610352 12.4033 -0.0627441 12.4697 0.184814L12.4814 0.226318C12.5918 0.610352 12.9014 0.909912 13.29 1.00757C13.542 1.07104 13.542 1.42896 13.29 1.49243C12.8887 1.59351 12.5723 1.90991 12.4707 2.31104C12.4072 2.56299 12.0498 2.56299 11.9863 2.31104C11.8848 1.90991 11.5684 1.59351 11.168 1.49243C10.916 1.42896 10.916 1.07104 11.168 1.00757C11.5605 0.908691 11.873 0.602783 11.9795 0.21582ZM5.94922 2.06641L5.99316 1.89575C6.12207 1.39917 6.82617 1.39575 6.95996 1.89087L7.03125 2.15552C7.79297 4.79102 9.91504 6.84351 12.5771 7.51392C13.0811 7.64062 13.0811 8.35669 12.5771 8.48364C9.82422 9.17725 7.65625 11.3457 6.96289 14.0989C6.83594 14.6025 6.12012 14.6028 5.99316 14.0989C5.2998 11.3457 3.13086 9.17725 0.37793 8.48413C-0.125977 8.35742 -0.125977 7.64136 0.37793 7.5144C3.07422 6.83496 5.21387 4.73926 5.94922 2.06641ZM12.3301 11.5376L12.3174 11.5835C12.1475 12.2029 11.6475 12.6921 11.0195 12.8506C10.6162 12.9521 10.6162 13.5247 11.0195 13.6262C11.6611 13.7878 12.167 14.2942 12.3291 14.936C12.4307 15.3391 13.0029 15.3391 13.1045 14.936C13.2666 14.2942 13.7725 13.7878 14.415 13.626C14.8174 13.5244 14.8174 12.9519 14.415 12.8503C13.7939 12.6941 13.2988 12.2148 13.1211 11.6003L13.1025 11.5339C12.9961 11.1377 12.4326 11.1406 12.3301 11.5376Z"
		clip-rule="evenodd" fill="currentColor" fill-opacity="1.000000" fill-rule="evenodd" />
</svg>