<svg width="1em" height="1em" viewBox="0 0 24 24" fill="none" xmlns="http://www.w3.org/2000/svg" xmlns:xlink="http://www.w3.org/1999/xlink">
	<defs/>
	<rect id="矩形" width="24.000000" height="24.000000" fill="#D8D8D8" fill-opacity="0"/>
	<rect id="矩形" x="0.500000" y="0.500000" width="23.000000" height="23.000000" stroke="#979797" stroke-opacity="0" stroke-width="1.000000"/>
	<rect id="矩形" x="8.666504" y="8.666626" rx="1.500000" width="6.666667" height="6.666667" fill="#1476FF" fill-opacity="1.000000"/>
	<circle id="椭圆形" cx="12.000000" cy="12.000000" r="8.250000" fill="#D8D8D8" fill-opacity="0"/>
	<circle id="椭圆形" cx="12.000000" cy="12.000000" r="8.250000" stroke="#1476FF" stroke-opacity="1.000000" stroke-width="1.500000"/>
	<path id="路径" d="M11.8 4.47C11.48 4.39 11.25 4.1 11.25 3.75C11.25 3.33 11.58 3 12 3L12.02 3.02L12.02 3.75C16.56 3.76 20.25 7.45 20.25 12C20.25 16.55 16.55 20.25 12 20.25C10.52 20.25 9.13 19.86 7.93 19.18L7.57 19.81L7.54 19.82C7.18 19.61 7.06 19.16 7.26 18.8C7.44 18.49 7.78 18.35 8.11 18.44L11.8 4.47Z" fill="#595959" fill-opacity="0" fill-rule="evenodd"/>
	<path id="路径" d="M7.91 19.17C9.12 19.85 10.51 20.25 12 20.25C16.55 20.25 20.25 16.55 20.25 12C20.25 7.44 16.55 3.75 12 3.75" stroke="#1476FF" stroke-opacity="1.000000" stroke-width="1.500000" stroke-linecap="round"/>
</svg>
