<svg width="1em" height="1em" viewBox="0 0 16 16" fill="none" xmlns="http://www.w3.org/2000/svg" xmlns:xlink="http://www.w3.org/1999/xlink">
	<path id="path1" d="M0.5 7.99C0.5 6.82 0.49 5.65 0.5 4.47C0.49 3.91 0.56 3.34 0.7 2.79C1.01 1.63 1.77 0.94 2.93 0.67C3.51 0.55 4.11 0.49 4.7 0.5C6.95 0.5 9.2 0.5 11.45 0.5C12.01 0.49 12.58 0.56 13.13 0.69C14.33 0.98 15.05 1.74 15.32 2.93C15.44 3.5 15.5 4.07 15.49 4.65C15.49 6.92 15.49 9.19 15.49 11.46C15.5 12.03 15.43 12.59 15.3 13.13C15.01 14.33 14.25 15.04 13.05 15.32C12.47 15.44 11.88 15.5 11.28 15.49C9.04 15.49 6.81 15.49 4.57 15.49C4 15.5 3.43 15.43 2.87 15.3C1.67 15.01 0.95 14.25 0.67 13.05C0.53 12.44 0.5 11.83 0.5 11.21C0.5 10.14 0.5 9.06 0.5 7.99Z" fill="#FFFFFF" fill-opacity="0" fill-rule="nonzero"/>
	<path id="path1" d="M0.5 4.47C0.49 3.91 0.56 3.34 0.7 2.79C1.01 1.63 1.77 0.94 2.93 0.67C3.51 0.55 4.11 0.49 4.7 0.5C6.95 0.5 9.2 0.5 11.45 0.5C12.01 0.49 12.58 0.56 13.13 0.69C14.33 0.98 15.05 1.74 15.32 2.93C15.44 3.5 15.5 4.07 15.49 4.65C15.49 6.92 15.49 9.19 15.49 11.46C15.5 12.03 15.43 12.59 15.3 13.13C15.01 14.33 14.25 15.04 13.05 15.32C12.47 15.44 11.88 15.5 11.28 15.49C9.04 15.49 6.81 15.49 4.57 15.49C4 15.5 3.43 15.43 2.87 15.3C1.67 15.01 0.95 14.25 0.67 13.05C0.53 12.44 0.5 11.83 0.5 11.21C0.5 10.14 0.5 9.06 0.5 7.99C0.5 6.82 0.49 5.65 0.5 4.47Z" stroke="#FFFFFF" stroke-opacity="0" stroke-width="1.000000"/>
	<path id="path2" d="M0.5 7.99C0.5 6.82 0.49 5.65 0.5 4.47C0.49 3.91 0.56 3.34 0.7 2.79C1.01 1.63 1.77 0.94 2.93 0.67C3.51 0.55 4.11 0.49 4.7 0.5C6.95 0.5 9.2 0.5 11.45 0.5C12.01 0.49 12.58 0.56 13.13 0.69C14.33 0.98 15.05 1.74 15.32 2.93C15.44 3.5 15.5 4.07 15.49 4.65C15.49 6.92 15.49 9.19 15.49 11.46C15.5 12.03 15.43 12.59 15.3 13.13C15.01 14.33 14.25 15.04 13.05 15.32C12.47 15.44 11.88 15.5 11.28 15.49C9.04 15.49 6.81 15.49 4.57 15.49C4 15.5 3.43 15.43 2.87 15.3C1.67 15.01 0.95 14.25 0.67 13.05C0.53 12.44 0.5 11.83 0.5 11.21C0.5 10.14 0.5 9.06 0.5 7.99Z" fill="#000000" fill-opacity="0" fill-rule="nonzero"/>
	<path id="path2" d="M0.5 4.47C0.49 3.91 0.56 3.34 0.7 2.79C1.01 1.63 1.77 0.94 2.93 0.67C3.51 0.55 4.11 0.49 4.7 0.5C6.95 0.5 9.2 0.5 11.45 0.5C12.01 0.49 12.58 0.56 13.13 0.69C14.33 0.98 15.05 1.74 15.32 2.93C15.44 3.5 15.5 4.07 15.49 4.65C15.49 6.92 15.49 9.19 15.49 11.46C15.5 12.03 15.43 12.59 15.3 13.13C15.01 14.33 14.25 15.04 13.05 15.32C12.47 15.44 11.88 15.5 11.28 15.49C9.04 15.49 6.81 15.49 4.57 15.49C4 15.5 3.43 15.43 2.87 15.3C1.67 15.01 0.95 14.25 0.67 13.05C0.53 12.44 0.5 11.83 0.5 11.21C0.5 10.14 0.5 9.06 0.5 7.99C0.5 6.82 0.49 5.65 0.5 4.47Z" stroke="#FFFFFF" stroke-opacity="0" stroke-width="1.000000"/>
	<circle id="path3" cx="8.000000" cy="8.000000" r="8.000000" fill="#FFFFFF" fill-opacity="0"/>
	<circle id="path3" cx="8.000000" cy="8.000000" r="8.000000" stroke="#000000" stroke-opacity="0" stroke-width="1.000000"/>
	<path id="path4" d="M8 3.5C10.48 3.5 12.5 5.5 12.5 7.98C12.5 9.58 11.65 10.99 10.38 11.78L10.38 13.38C10.38 13.67 10.14 13.91 9.84 13.91L6.15 13.91C5.85 13.91 5.61 13.67 5.61 13.38L5.61 11.78C4.34 10.99 3.5 9.58 3.5 7.98C3.5 5.5 5.51 3.5 8 3.5Z" fill="#FFFFFF" fill-opacity="0" fill-rule="evenodd"/>
	<path id="path4" d="M12.5 7.98C12.5 9.58 11.65 10.99 10.38 11.78L10.38 13.38C10.38 13.67 10.14 13.91 9.84 13.91L6.15 13.91C5.85 13.91 5.61 13.67 5.61 13.38L5.61 11.78C4.34 10.99 3.5 9.58 3.5 7.98C3.5 5.5 5.51 3.5 8 3.5C10.48 3.5 12.5 5.5 12.5 7.98Z" stroke="currentColor" stroke-opacity="1.000000" stroke-width="1.000000" stroke-linejoin="round"/>
	<line id="path5" x1="5.617188" y1="15.368164" x2="10.381836" y2="15.368164" stroke="currentColor" stroke-opacity="1.000000" stroke-width="1.000000"/>
	<path id="path6" d="M10.24 15.1C10.32 15.1 10.38 15.16 10.38 15.23C10.38 15.31 10.32 15.37 10.24 15.37L5.74 15.37C5.67 15.37 5.61 15.31 5.61 15.23C5.61 15.16 5.67 15.1 5.74 15.1L10.24 15.1Z" fill="#FFFFFF" fill-opacity="0" fill-rule="evenodd"/>
	<path id="path6" d="M10.38 15.23C10.38 15.31 10.32 15.37 10.24 15.37L5.74 15.37C5.67 15.37 5.61 15.31 5.61 15.23C5.61 15.16 5.67 15.1 5.74 15.1L10.24 15.1C10.32 15.1 10.38 15.16 10.38 15.23Z" stroke="#FFFFFF" stroke-opacity="0" stroke-width="1.000000" stroke-linejoin="round"/>
	<path id="path7" d="M7.52 0.85L7.5 0.83C7.5 0.55 7.72 0.33 8 0.33C8.28 0.33 8.5 0.55 8.5 0.83L8.48 0.85L7.52 0.85ZM8.48 1.64L8.5 1.66C8.5 1.94 8.28 2.16 8 2.16C7.72 2.16 7.5 1.94 7.5 1.66L7.52 1.64L8.48 1.64ZM12.71 2.6L12.71 2.57C12.91 2.38 13.22 2.38 13.42 2.57C13.61 2.77 13.61 3.08 13.42 3.28L13.39 3.28L12.71 2.6ZM12.83 3.84L12.83 3.87C12.63 4.07 12.32 4.07 12.12 3.87C11.92 3.67 11.92 3.36 12.12 3.16L12.15 3.16L12.83 3.84ZM15.14 7.52L15.16 7.5C15.44 7.5 15.66 7.72 15.66 8C15.66 8.28 15.44 8.5 15.16 8.5L15.14 8.47L15.14 7.52ZM14.35 8.47L14.33 8.5C14.05 8.5 13.83 8.28 13.83 8C13.83 7.72 14.05 7.5 14.33 7.5L14.35 7.52L14.35 8.47ZM0.85 8.47L0.83 8.5C0.55 8.5 0.33 8.28 0.33 8C0.33 7.72 0.55 7.5 0.83 7.5L0.85 7.52L0.85 8.47ZM1.64 7.52L1.66 7.5C1.94 7.5 2.16 7.72 2.16 8C2.16 8.28 1.94 8.5 1.66 8.5L1.64 8.47L1.64 7.52ZM2.6 3.28L2.57 3.28C2.38 3.08 2.38 2.77 2.57 2.57C2.77 2.38 3.08 2.38 3.28 2.57L3.28 2.6L2.6 3.28ZM3.84 3.16L3.87 3.16C4.07 3.36 4.07 3.67 3.87 3.87C3.67 4.07 3.36 4.07 3.16 3.87L3.16 3.84L3.84 3.16Z" fill="#000000" fill-opacity="0" fill-rule="nonzero"/>
	<path id="path7" d="M8 0.83L8 1.66M13.06 2.93L12.47 3.52M15.16 8L14.33 8M0.83 8L1.66 8M2.93 2.93L3.52 3.52" stroke="currentColor" stroke-opacity="1.000000" stroke-width="1.000000" stroke-linejoin="round" stroke-linecap="round"/>
	<path id="path8" d="M8 0.83C8.18 0.83 8.33 0.98 8.33 1.16L8.33 1.5C8.33 1.68 8.18 1.83 8 1.83C7.81 1.83 7.66 1.68 7.66 1.5L7.66 1.16C7.66 0.98 7.81 0.83 8 0.83ZM13.06 2.93C13.19 3.06 13.19 3.27 13.06 3.4L12.83 3.63C12.7 3.77 12.49 3.77 12.36 3.63C12.23 3.5 12.23 3.29 12.36 3.16L12.59 2.93C12.72 2.8 12.93 2.8 13.06 2.93ZM15.16 8C15.16 8.18 15.01 8.33 14.83 8.33L14.5 8.33C14.31 8.33 14.16 8.18 14.16 8C14.16 7.81 14.31 7.66 14.5 7.66L14.83 7.66C15.01 7.66 15.16 7.81 15.16 8ZM0.83 8C0.83 7.81 0.98 7.66 1.16 7.66L1.5 7.66C1.68 7.66 1.83 7.81 1.83 8C1.83 8.18 1.68 8.33 1.5 8.33L1.16 8.33C0.98 8.33 0.83 8.18 0.83 8ZM2.93 2.93C3.06 2.8 3.27 2.8 3.4 2.93L3.64 3.16C3.77 3.29 3.77 3.5 3.64 3.63C3.51 3.77 3.29 3.77 3.16 3.63L2.93 3.4C2.8 3.27 2.8 3.06 2.93 2.93Z" fill="#FFFFFF" fill-opacity="0" fill-rule="evenodd"/>
	<path id="path8" d="M8.33 1.16L8.33 1.5C8.33 1.68 8.18 1.83 8 1.83C7.81 1.83 7.66 1.68 7.66 1.5L7.66 1.16C7.66 0.98 7.81 0.83 8 0.83C8.18 0.83 8.33 0.98 8.33 1.16ZM13.06 3.4L12.83 3.63C12.7 3.77 12.49 3.77 12.36 3.63C12.23 3.5 12.23 3.29 12.36 3.16L12.59 2.93C12.72 2.8 12.93 2.8 13.06 2.93C13.19 3.06 13.19 3.27 13.06 3.4ZM14.83 8.33L14.5 8.33C14.31 8.33 14.16 8.18 14.16 8C14.16 7.81 14.31 7.66 14.5 7.66L14.83 7.66C15.01 7.66 15.16 7.81 15.16 8C15.16 8.18 15.01 8.33 14.83 8.33ZM1.16 7.66L1.5 7.66C1.68 7.66 1.83 7.81 1.83 8C1.83 8.18 1.68 8.33 1.5 8.33L1.16 8.33C0.98 8.33 0.83 8.18 0.83 8C0.83 7.81 0.98 7.66 1.16 7.66ZM3.4 2.93L3.64 3.16C3.77 3.29 3.77 3.5 3.64 3.63C3.51 3.77 3.29 3.77 3.16 3.63L2.93 3.4C2.8 3.27 2.8 3.06 2.93 2.93C3.06 2.8 3.27 2.8 3.4 2.93Z" stroke="#FFFFFF" stroke-opacity="0" stroke-width="1.000000" stroke-linejoin="round"/>
</svg>
