<svg width="1em" height="1em" viewBox="0 0 16 16" fill="none" xmlns="http://www.w3.org/2000/svg" xmlns:xlink="http://www.w3.org/1999/xlink">
	<rect id="矩形" rx="4.000000" width="16.000000" height="16.000000" fill="#FFBB33" fill-opacity="1.000000"/>
	<rect id="矩形" x="0.500000" y="0.500000" rx="4.000000" width="15.000000" height="15.000000" stroke="#979797" stroke-opacity="0" stroke-width="1.000000"/>
	<rect id="矩形" x="3.000000" y="3.000000" width="10.000000" height="10.000000" fill="#D8D8D8" fill-opacity="0"/>
	<rect id="矩形" x="3.500000" y="3.500000" width="9.000000" height="9.000000" stroke="#979797" stroke-opacity="0" stroke-width="1.000000"/>
	<path id="路径" d="M5 3L5.91 3C6.44 3 6.96 3.21 7.33 3.59L8 4.26L11.63 4.26C12.38 4.26 13 4.9 13 5.69L13 10.95C13 11.73 12.38 12.37 11.63 12.37L4.36 12.37C3.61 12.37 3 11.73 3 10.95L3 5C3 3.89 3.89 3 5 3Z" fill="#FFFFFF" fill-opacity="1.000000" fill-rule="evenodd"/>
	<path id="路径 6" d="M5.52 7.64L5.5 7.66C5.21 7.66 5 7.44 5 7.16C5 6.88 5.21 6.66 5.5 6.66L5.52 6.68L5.52 7.64ZM10.48 6.68L10.5 6.66C10.78 6.66 11 6.88 11 7.16C11 7.44 10.78 7.66 10.5 7.66L10.48 7.64L10.48 6.68Z" fill="#D8D8D8" fill-opacity="0" fill-rule="nonzero"/>
	<path id="路径 6" d="M5.5 7.16L10.5 7.16" stroke="#FFBB33" stroke-opacity="1.000000" stroke-width="1.000000" stroke-linejoin="round" stroke-linecap="round"/>
</svg>
