<svg width="20.000000" height="20.000000" viewBox="0 0 20 20" fill="none" xmlns="http://www.w3.org/2000/svg" xmlns:xlink="http://www.w3.org/1999/xlink">

	<defs/>
	<circle id="椭圆形" cx="10.000000" cy="10.000000" r="8.750000" fill="#D8D8D8" fill-opacity="0"/>
	<circle id="椭圆形" cx="10.000000" cy="10.000000" r="8.750000" stroke="#FFFFFF" stroke-opacity="0.400000" stroke-width="2.500000"/>
	<path id="路径" d="M9.67 2.46C9.13 2.32 8.75 1.83 8.75 1.25C8.75 0.54 9.29 0 10 0L10.02 0.02L10.02 1.25C14.84 1.26 18.75 5.17 18.75 10C18.75 14.83 14.83 18.75 10 18.75C8.43 18.75 6.96 18.33 5.69 17.61L5.08 18.68L5.05 18.69C4.44 18.34 4.24 17.59 4.58 16.98C4.87 16.47 5.45 16.24 5.99 16.39L9.67 2.46Z" fill="#595959" fill-opacity="0" fill-rule="evenodd"/>
	<path id="路径" d="M5.67 17.6C6.94 18.33 8.42 18.75 10 18.75C14.83 18.75 18.75 14.83 18.75 10C18.75 5.16 14.83 1.25 10 1.25" stroke="#FFFFFF" stroke-opacity="1.000000" stroke-width="2.500000" stroke-linecap="round"/>
</svg>
