<svg width="1em" height="1em" viewBox="0 0 16 16" fill="none" xmlns="http://www.w3.org/2000/svg" xmlns:xlink="http://www.w3.org/1999/xlink">
	<rect id="矩形" rx="4.000000" width="16.000000" height="16.000000" fill="#1476FF" fill-opacity="1.000000"/>
	<rect id="矩形" x="0.500000" y="0.500000" rx="4.000000" width="15.000000" height="15.000000" stroke="#979797" stroke-opacity="0" stroke-width="1.000000"/>
	<path id="路径" d="M9 4C10.33 4 11.42 5.01 11.55 6.3C11.65 6.29 11.75 6.28 11.85 6.28C12.96 6.28 13.85 7.18 13.85 8.28C13.85 9.08 13.38 9.77 12.71 10.09L12.71 10L12.71 10L12.71 9.87C12.65 8.59 11.65 7.55 10.38 7.43L10.31 7.43L10.28 7.33C9.88 6.05 8.68 5.14 7.28 5.14L7.15 5.14C7.04 5.14 6.94 5.15 6.84 5.17C7.29 4.46 8.09 4 9 4Z" fill="#FFFFFF" fill-opacity="1.000000" fill-rule="evenodd"/>
	<path id="路径" d="" fill="#FFFFFF" fill-opacity="0" fill-rule="evenodd"/>
	<path id="路径" d="M7.28 5.71C8.61 5.71 9.71 6.72 9.84 8.02C9.94 8 10.04 8 10.14 8C11.24 8 12.14 8.89 12.14 10C12.14 11.06 11.3 11.94 10.25 11.99L10.12 12L10.12 12L5 12C3.93 12 3.05 11.16 3 10.1L3 10C3 8.98 3.75 8.15 4.72 8.01C4.86 6.72 5.95 5.71 7.28 5.71Z" fill="#FFFFFF" fill-opacity="1.000000" fill-rule="evenodd"/>
	<path id="路径" d="" fill="#FFFFFF" fill-opacity="0" fill-rule="evenodd"/>
	<path id="路径 5" d="M5.02 10.76L5 10.78C4.71 10.78 4.5 10.56 4.5 10.28C4.5 10 4.71 9.78 5 9.78L5.02 9.8L5.02 10.76ZM7.26 9.8L7.28 9.78C7.56 9.78 7.78 10 7.78 10.28C7.78 10.56 7.56 10.78 7.28 10.78L7.26 10.76L7.26 9.8Z" fill="#7083FD" fill-opacity="0" fill-rule="nonzero"/>
	<path id="路径 5" d="M5 10.28L7.28 10.28" stroke="#1476FF" stroke-opacity="1.000000" stroke-width="1.000000" stroke-linecap="round"/>
</svg>
