<svg width="1em" height="1em" id="图层_1" data-name="图层 1" xmlns="http://www.w3.org/2000/svg" viewBox="0 0 24 24">
    <path id="矢量_1" data-name="矢量 1" class="cls-1" fill="currentColor" fill-rule="evenodd"
        d="M2,5.75A3.73862,3.73862,0,0,1,5.75,2h12A3.745,3.745,0,0,1,21.5,5.75v12a3.75137,3.75137,0,0,1-3.75,3.75h-12A3.745,3.745,0,0,1,2,17.75ZM15.5,20h2.25A2.25339,2.25339,0,0,0,20,17.75v-12A2.247,2.247,0,0,0,17.75,3.5H15.5ZM14,3.5V20H5.75A2.247,2.247,0,0,1,3.5,17.75v-12A2.24064,2.24064,0,0,1,5.75,3.5Z" />
</svg>