<svg width="1em" height="1em" id="图层_1" data-name="图层 1" xmlns="http://www.w3.org/2000/svg" viewBox="0 0 24 24">
    <path id="矢量_2" data-name="矢量 2" fill="currentColor" fill-rule="evenodd"
        d="M8.75,21.5h-3a3.59118,3.59118,0,0,1-.81-.09,4.47125,4.47125,0,0,1-.66-.21,4.30218,4.30218,0,0,1-.6-.32,3.41263,3.41263,0,0,1-.59-.49,3.79234,3.79234,0,0,1-.48-.58,4.41764,4.41764,0,0,1-.32-.61,4.00025,4.00025,0,0,1-.21-.67A3.38711,3.38711,0,0,1,2,17.75v-12a3.7701,3.7701,0,0,1,.09-.83h0a2.965,2.965,0,0,1,.2-.64A3.67725,3.67725,0,0,1,3.67,2.62a3.5954,3.5954,0,0,1,.61-.33,2.965,2.965,0,0,1,.64-.2A3.7701,3.7701,0,0,1,5.75,2h12a3.38711,3.38711,0,0,1,.78.08,4.00025,4.00025,0,0,1,.67.21,4.41764,4.41764,0,0,1,.61.32,3.79234,3.79234,0,0,1,.58.48,4.03593,4.03593,0,0,1,.49.59h0a4.30218,4.30218,0,0,1,.32.6,3.89356,3.89356,0,0,1,.21.66,3.59118,3.59118,0,0,1,.09.81V8.67a.75.75,0,1,1-1.5,0V5.75a2.0966,2.0966,0,0,0-.06-.51,2.28512,2.28512,0,0,0-.12-.37,2.31345,2.31345,0,0,0-.18-.35,2.64479,2.64479,0,0,0-.31-.37,1.99038,1.99038,0,0,0-.36-.29,1.70355,1.70355,0,0,0-.35-.19,2.77872,2.77872,0,0,0-.38-.12,2.03955,2.03955,0,0,0-.49-.05h-12a2.265,2.265,0,0,0-.53.06,2.13238,2.13238,0,0,0-.35.11,2.04853,2.04853,0,0,0-.36.19,2.1587,2.1587,0,0,0-.65.65,2.04853,2.04853,0,0,0-.19.36,1.425,1.425,0,0,0-.11.35,2.265,2.265,0,0,0-.06.53v12a2.39632,2.39632,0,0,0,.05.49,2.77872,2.77872,0,0,0,.12.38,1.70355,1.70355,0,0,0,.19.35,2.08113,2.08113,0,0,0,.29.36,2.64479,2.64479,0,0,0,.37.31,2.31345,2.31345,0,0,0,.35.18,2.28512,2.28512,0,0,0,.37.12,2.0966,2.0966,0,0,0,.51.06h3a.75.75,0,0,1,0,1.5ZM19.25,11a1.83118,1.83118,0,0,1,.47.05,2.057,2.057,0,0,1,.77.32,3.06674,3.06674,0,0,1,.35.28,3.06674,3.06674,0,0,1,.28.35,2.057,2.057,0,0,1,.32.77,1.85651,1.85651,0,0,1,.06.48v6a1.83526,1.83526,0,0,1-.06.47,2.057,2.057,0,0,1-.32.77,2.0294,2.0294,0,0,1-.63.63,2.057,2.057,0,0,1-.77.32,1.83526,1.83526,0,0,1-.47.06h-6a1.85651,1.85651,0,0,1-.48-.06,2.057,2.057,0,0,1-.77-.32,3.06674,3.06674,0,0,1-.35-.28,3.06674,3.06674,0,0,1-.28-.35,2.057,2.057,0,0,1-.32-.77,1.83118,1.83118,0,0,1-.05-.47v-6a1.86148,1.86148,0,0,1,.05-.48,2.057,2.057,0,0,1,.32-.77,3.06674,3.06674,0,0,1,.28-.35,3.06674,3.06674,0,0,1,.35-.28,2.057,2.057,0,0,1,.77-.32,1.86148,1.86148,0,0,1,.48-.05Zm0,1.5h-6a.68151.68151,0,0,0-.29.05.69218.69218,0,0,0-.41.41.68151.68151,0,0,0-.05.29v6a.66324.66324,0,0,0,.05.28.96324.96324,0,0,0,.16.25.66859.66859,0,0,0,.25.16h0a.68389.68389,0,0,0,.29.06h6a.671.671,0,0,0,.28-.06.69218.69218,0,0,0,.41-.41.671.671,0,0,0,.06-.28v-6a.68389.68389,0,0,0-.06-.29.69218.69218,0,0,0-.41-.41A.66324.66324,0,0,0,19.25,12.5Z" />
</svg>