<svg width="32.000000" height="32.000000" viewBox="0 0 32 32" fill="none" xmlns="http://www.w3.org/2000/svg" xmlns:xlink="http://www.w3.org/1999/xlink">
	<desc>
			Created with Pixso.
	</desc>
	<defs/>
	<rect id="矩形" rx="8.000000" width="32.000000" height="32.000000" fill="#000000" fill-opacity="0"/>
	<rect id="矩形" x="0.500000" y="0.500000" rx="8.000000" width="31.000000" height="31.000000" stroke="#979797" stroke-opacity="0" stroke-width="1.000000"/>
	<rect id="矩形" x="4.000000" y="4.000000" width="24.000000" height="24.000000" fill="#D8D8D8" fill-opacity="0"/>
	<rect id="矩形" x="4.500000" y="4.500000" width="23.000000" height="23.000000" stroke="#979797" stroke-opacity="0" stroke-width="1.000000"/>
	<path id="路径 3" d="M13.37 10.32L13.23 10.26L15.44 11.19L12.61 18.98C12.2 20.11 12.81 21.36 13.95 21.72C15.04 22.07 16.2 21.5 16.59 20.43L19.35 12.85L18.8 12.65L18.79 12.62C18.79 12.61 18.8 12.61 18.8 12.6L15.44 11.19L15.83 10.14C16.49 8.31 18.52 7.37 20.35 8.03C22.18 8.7 23.12 10.72 22.46 12.55L19.15 21.65C18.21 24.21 15.38 25.54 12.82 24.6C10.25 23.67 8.93 20.83 9.86 18.27L12.83 10.12L12.28 9.92L12.27 9.9C12.39 9.58 12.73 9.42 13.04 9.54C13.36 9.65 13.52 9.99 13.4 10.31L13.37 10.32Z" fill="#D8D8D8" fill-opacity="0" fill-rule="evenodd"/>
	<path id="路径 3" d="M12.84 10.1L9.86 18.27C8.93 20.83 10.25 23.67 12.82 24.6C15.38 25.54 18.21 24.21 19.15 21.65L22.46 12.55C23.12 10.72 22.18 8.7 20.35 8.03C18.52 7.37 16.49 8.31 15.83 10.14L12.61 18.98C12.2 20.11 12.81 21.36 13.95 21.72C15.04 22.07 16.2 21.5 16.59 20.43L19.35 12.83" stroke="#595959" stroke-opacity="1.000000" stroke-width="1.200000" stroke-linecap="round"/>
</svg>
