<svg width="102.000000" height="36.000000" viewBox="0 0 102 36" fill="none" xmlns="http://www.w3.org/2000/svg" xmlns:xlink="http://www.w3.org/1999/xlink">
	<desc>
			Created with Pixso.
	</desc>
	<defs/>
	<rect id="沉浸式/输入框/停止生成按钮" rx="18.000000" width="102.000000" height="36.000000" fill="#1476FF" fill-opacity="0.060000"/>
	<path id="停止回答" d="M79.96 13.66L78.75 13.66C78.4 14.31 78.01 14.92 77.56 15.46L76.71 14.92C77.59 13.85 78.23 12.69 78.63 11.42L79.59 11.63C79.47 12.01 79.33 12.37 79.19 12.73L82.95 12.73L82.95 13.66L80.98 13.66C81.25 14.1 81.47 14.53 81.64 14.92L80.73 15.25C80.5 14.69 80.24 14.16 79.96 13.66ZM85.88 13.66L84.54 13.66C84.28 14.09 84 14.5 83.71 14.89L82.87 14.37C83.6 13.49 84.12 12.51 84.44 11.43L85.4 11.64C85.28 12.03 85.14 12.4 85 12.73L89.2 12.73L89.2 13.66L86.93 13.66C87.26 14.19 87.54 14.69 87.76 15.14L86.84 15.46Q86.42 14.52 85.88 13.66ZM34.48 17.26C35.8 15.57 36.77 13.64 37.37 11.49L38.31 11.92C37.98 12.96 37.59 13.95 37.13 14.87L37.13 24.4L36.11 24.4L36.11 16.62C35.72 17.21 35.28 17.79 34.82 18.32L34.48 17.26ZM41.56 11.65L42.58 11.49C42.72 11.84 42.84 12.24 42.98 12.69L46.97 12.69L46.97 13.59L38.31 13.59L38.31 12.69L41.98 12.69C41.85 12.33 41.71 11.98 41.56 11.65ZM55.09 22.81L55.09 11.63L56.13 11.63L56.13 16.18L60.44 16.18L60.44 17.16L56.13 17.16L56.13 22.81L61.21 22.81L61.21 23.79L48.78 23.79L48.78 22.81L51.16 22.81L51.16 14.08L52.17 14.08L52.17 22.81L55.09 22.81ZM63.38 12.4L74.61 12.4L74.61 24.17L73.63 24.17L73.63 23.57L64.36 23.57L64.36 24.17L63.38 24.17L63.38 12.4ZM64.36 13.29L64.36 22.67L73.63 22.67L73.63 13.29L64.36 13.29ZM39.23 17.04L39.23 14.4L45.9 14.4L45.9 17.04L39.23 17.04ZM79.78 18.65L79.78 18.03C78.96 18.46 78.08 18.87 77.14 19.24L76.67 18.36C79.06 17.46 81.05 16.34 82.65 15.01L83.32 15.01C85.08 16.44 87.11 17.56 89.41 18.39L88.92 19.26C87.96 18.89 87.07 18.47 86.24 18.03L86.24 18.65L79.78 18.65ZM40.21 16.28L44.92 16.28L44.92 15.17L40.21 15.17L40.21 16.28ZM66.31 20.45L66.31 15.46L71.71 15.46L71.71 20.45L66.31 20.45ZM80.32 17.72L85.7 17.72C84.7 17.14 83.79 16.5 82.98 15.8C82.21 16.48 81.33 17.13 80.32 17.72ZM67.25 19.59L70.76 19.59L70.76 16.33L67.25 16.33L67.25 19.59ZM38.18 17.86L47 17.86L47 20.25L46.25 20.25L46.25 20.88L43.22 20.88L43.22 23.15C43.22 23.9 42.8 24.3 41.99 24.3L40.41 24.3L40.2 23.32C40.7 23.34 41.18 23.37 41.64 23.37C42 23.37 42.18 23.2 42.18 22.9L42.18 20.88L39.12 20.88L39.12 20.25L38.18 20.25L38.18 17.86ZM39.16 18.74L39.16 20.01L46.04 20.01L46.04 18.74L39.16 18.74ZM78.81 19.96L87.18 19.96L87.18 24.38L86.21 24.38L86.21 23.75L79.78 23.75L79.78 24.38L78.81 24.38L78.81 19.96ZM79.78 20.88L79.78 22.83L86.21 22.83L86.21 20.88L79.78 20.88Z" fill="#1476FF" fill-opacity="1.000000" fill-rule="evenodd"/>
	<rect id="矩形" x="7.713867" y="7.714844" width="20.571428" height="20.571428" fill="#D8D8D8" fill-opacity="0"/>
	<rect id="矩形" x="8.213867" y="8.214844" width="19.571428" height="19.571428" stroke="#979797" stroke-opacity="0" stroke-width="1.000000"/>
	<rect id="矩形" x="6.000000" y="6.000000" width="24.000000" height="24.000000" fill="#D8D8D8" fill-opacity="0"/>
	<rect id="矩形" x="6.500000" y="6.500000" width="23.000000" height="23.000000" stroke="#979797" stroke-opacity="0" stroke-width="1.000000"/>
	<rect id="矩形" x="14.666992" y="14.666016" rx="1.500000" width="6.666667" height="6.666667" fill="#1476FF" fill-opacity="1.000000"/>
	<circle id="椭圆形" cx="18.000000" cy="18.000000" r="8.250000" fill="#D8D8D8" fill-opacity="0"/>
	<circle id="椭圆形" cx="18.000000" cy="18.000000" r="8.250000" stroke="#1476FF" stroke-opacity="1.000000" stroke-width="1.500000"/>
	<path id="路径" d="M17.8 10.47C17.48 10.39 17.25 10.1 17.25 9.75C17.25 9.33 17.58 9 18 9L18.02 9.02L18.02 9.75C22.56 9.76 26.25 13.45 26.25 18C26.25 22.55 22.55 26.25 18 26.25C16.52 26.25 15.13 25.86 13.93 25.18L13.57 25.81L13.54 25.82C13.18 25.61 13.06 25.16 13.26 24.8C13.44 24.49 13.78 24.35 14.11 24.44L17.8 10.47Z" fill="#595959" fill-opacity="0" fill-rule="evenodd"/>
	<path id="路径" d="M13.91 25.17C15.12 25.85 16.51 26.25 18 26.25C22.55 26.25 26.25 22.55 26.25 18C26.25 13.44 22.55 9.75 18 9.75" stroke="#1476FF" stroke-opacity="1.000000" stroke-width="1.500000" stroke-linecap="round"/>
</svg>
