<svg width="152.343506" height="18.000000" viewBox="0 0 152.344 18" fill="none" xmlns="http://www.w3.org/2000/svg" xmlns:xlink="http://www.w3.org/1999/xlink">
	<desc>
			Created with Pixso.
	</desc>
	<defs>
		<linearGradient x1="159.655945" y1="6.532532" x2="-2.217805" y2="3.665466" id="paint_linear_498_7491_0" gradientUnits="userSpaceOnUse">
			<stop stop-color="#E6FF7D" stop-opacity="0.200000"/>
			<stop offset="0.264015" stop-color="#FFB22E" stop-opacity="0.200000"/>
			<stop offset="0.522782" stop-color="#97A7FF" stop-opacity="0.258824"/>
			<stop offset="0.702223" stop-color="#76ADFF" stop-opacity="0.400000"/>
			<stop offset="0.830214" stop-color="#67D1FF" stop-opacity="0.301961"/>
			<stop offset="1.000000" stop-color="#D27EFF" stop-opacity="0.090196"/>
		</linearGradient>
	</defs>
	<path id="Fill 3" d="M9.52 9.61C12.69 9.9 15.86 10.31 19.04 10.74C20.63 10.94 22.21 11.28 23.8 11.78C25.39 12.26 26.97 12.84 28.56 13.26C30.15 13.67 31.73 13.89 33.32 13.89C34.11 13.88 34.91 13.69 35.7 13.33C36.49 12.98 37.29 12.49 38.08 12.06C38.87 11.63 39.67 11.29 40.46 11.19C40.86 11.13 41.25 11.13 41.65 11.17C42.05 11.22 42.45 11.31 42.84 11.39C44.43 11.75 46.02 12.36 47.6 13.19C50.78 14.81 53.95 16.29 57.12 17.28C60.3 18.29 63.47 18.26 66.65 16.96C69.82 15.68 72.99 14.04 76.17 12.73C79.34 11.4 82.51 11.19 85.69 11.85C88.86 12.53 92.04 14.04 95.21 14.41C96 14.51 96.8 14.56 97.59 14.56C98.38 14.55 99.18 14.5 99.97 14.46C101.56 14.35 103.14 14.18 104.73 13.94C107.91 13.45 111.08 12.64 114.25 11.93C117.43 11.19 120.6 10.62 123.77 10.26C126.95 9.88 130.12 9.49 133.3 9.28C136.47 9.06 139.64 9 142.82 9L152.34 9L142.82 9C139.64 8.99 136.47 8.93 133.3 8.71C130.12 8.5 126.95 8.11 123.77 7.73C120.6 7.37 117.43 6.8 114.25 6.06C111.08 5.35 107.91 4.54 104.73 4.05C103.14 3.81 101.56 3.64 99.97 3.53C99.18 3.49 98.38 3.44 97.59 3.43C96.8 3.43 96 3.48 95.21 3.58C92.04 3.95 88.86 5.46 85.69 6.14C82.51 6.8 79.34 6.59 76.17 5.26C72.99 3.95 69.82 2.31 66.65 1.03C63.47 -0.27 60.3 -0.31 57.12 0.71C53.95 1.7 50.78 3.18 47.6 4.8C46.02 5.63 44.43 6.24 42.84 6.6C42.45 6.68 42.05 6.77 41.65 6.82C41.25 6.86 40.86 6.86 40.46 6.8C39.67 6.7 38.87 6.36 38.08 5.93C37.29 5.51 36.49 5.01 35.7 4.66C34.91 4.3 34.11 4.11 33.32 4.1C31.73 4.1 30.15 4.32 28.56 4.73C26.97 5.15 25.39 5.73 23.8 6.21C22.21 6.71 20.63 7.05 19.04 7.25C15.86 7.68 12.69 8.09 9.52 8.38C6.34 8.69 3.17 8.94 0 9C3.17 9.05 6.34 9.3 9.52 9.61Z" fill="url(#paint_linear_498_7491_0)" fill-opacity="1.000000" fill-rule="evenodd"/>
</svg>
