<svg width="36" height="36" viewBox="0 0 36 36" fill="none" xmlns="http://www.w3.org/2000/svg" xmlns:xlink="http://www.w3.org/1999/xlink">
	<desc>
		Created with Pixso.
	</desc>
	<defs>
		<filter id="filter_447_4247_dd" x="0" y="0" width="36" height="36" filterUnits="userSpaceOnUse" color-interpolation-filters="sRGB">
			<feFlood flood-opacity="0" result="BackgroundImageFix"/>
			<feColorMatrix in="SourceAlpha" type="matrix" values="0 0 0 0 0 0 0 0 0 0 0 0 0 0 0 0 0 0 127 0" result="hardAlpha"/>
			<feOffset dx="0" dy="2"/>
			<feGaussianBlur stdDeviation="1.66667"/>
			<feComposite in2="hardAlpha" operator="out" k2="-1" k3="1"/>
			<feColorMatrix type="matrix" values="0 0 0 0 0 0 0 0 0 0 0 0 0 0 0 0 0 0 0.039 0"/>
			<feBlend mode="normal" in2="BackgroundImageFix" result="effect_dropShadow_1"/>
			<feBlend mode="normal" in="SourceGraphic" in2="effect_dropShadow_1" result="shape"/>
		</filter>
	</defs>
	<g filter="url(#filter_447_4247_dd)">
		<rect id="Rectangle" x="0" y="0" rx="18" width="36" height="36" fill="#1476FF" fill-opacity="1"/>
	</g>
	<path id="Fill 1" d="M26.38 8.7L7.99 17.45C7.59 17.64 7.58 18.21 7.98 18.4L12.56 20.7C12.78 20.81 13.05 20.77 13.23 20.62L23.54 11.95C23.71 11.81 23.94 12.05 23.78 12.21L14.9 21.42C14.72 21.61 14.63 21.87 14.66 22.14L15.21 26.9C15.26 27.36 15.83 27.54 16.14 27.19L18.36 24.65C18.49 24.5 18.46 24.25 18.29 24.13L16.45 22.88C16.34 22.81 16.44 22.64 16.56 22.7L19 23.92L21.87 25.35C22.17 25.5 22.52 25.35 22.62 25.03L27.44 9.62C27.64 8.98 26.98 8.41 26.38 8.7Z" fill="#FFFFFF" fill-opacity="1" fill-rule="evenodd"/>
</svg>
