<svg width="46.000000" height="46.000000" viewBox="0 0 46 46" fill="none" xmlns="http://www.w3.org/2000/svg" xmlns:xlink="http://www.w3.org/1999/xlink">
	<desc>
			Created with Pixso.
	</desc>
	<defs>
		<filter id="filter_447_4247_dd" x="0.000000" y="0.000000" width="46.000000" height="46.000000" filterUnits="userSpaceOnUse" color-interpolation-filters="sRGB">
			<feFlood flood-opacity="0" result="BackgroundImageFix"/>
			<feColorMatrix in="SourceAlpha" type="matrix" values="0 0 0 0 0 0 0 0 0 0 0 0 0 0 0 0 0 0 127 0" result="hardAlpha"/>
			<feOffset dx="0" dy="2"/>
			<feGaussianBlur stdDeviation="1.66667"/>
			<feComposite in2="hardAlpha" operator="out" k2="-1" k3="1"/>
			<feColorMatrix type="matrix" values="0 0 0 0 0 0 0 0 0 0 0 0 0 0 0 0 0 0 0.039 0"/>
			<feBlend mode="normal" in2="BackgroundImageFix" result="effect_dropShadow_1"/>
			<feBlend mode="normal" in="SourceGraphic" in2="effect_dropShadow_1" result="shape"/>
		</filter>
	</defs>
	<g filter="url(#filter_447_4247_dd)">
		<rect id="Rectangle" x="5.000000" y="3.000000" rx="18.000000" width="36.000000" height="36.000000" fill="#1476FF" fill-opacity="1.000000"/>
	</g>
	<rect id="矩形" x="11.750000" y="9.750000" width="22.500000" height="22.500000" fill="#D8D8D8" fill-opacity="0"/>
	<rect id="矩形" x="12.250000" y="10.250000" width="21.500000" height="21.500000" stroke="#979797" stroke-opacity="0" stroke-width="1.000000"/>
	<path id="Fill 1" d="M31.38 11.7L12.99 20.45C12.59 20.64 12.58 21.21 12.98 21.4L17.56 23.7C17.78 23.81 18.05 23.77 18.23 23.62L28.54 14.95C28.71 14.81 28.94 15.05 28.78 15.21L19.9 24.42C19.72 24.61 19.63 24.87 19.66 25.14L20.21 29.9C20.26 30.36 20.83 30.54 21.14 30.19L23.36 27.65C23.49 27.5 23.46 27.25 23.29 27.13L21.45 25.88C21.34 25.81 21.44 25.64 21.56 25.7L24 26.92L26.87 28.35C27.17 28.5 27.52 28.35 27.62 28.03L32.44 12.62C32.64 11.98 31.98 11.41 31.38 11.7Z" fill="#FFFFFF" fill-opacity="1.000000" fill-rule="evenodd"/>
	<g opacity="0.050000">
		<path id="形状结合" d="M21.4175 25.8337C21.4243 25.8538 21.438 25.8726 21.46 25.8877L23.2959 27.1393C23.4697 27.2581 23.501 27.5024 23.3623 27.661L21.1445 30.1937C20.8394 30.5419 20.2661 30.3632 20.2129 29.9036L19.6631 25.1438C19.6558 25.0808 19.6553 25.0178 19.6611 24.9558L21.4175 25.8337Z" clip-rule="evenodd" fill="#000000" fill-opacity="0.000000" fill-rule="evenodd"/>
	</g>
</svg>
