<svg width="32.000000" height="32.000000" viewBox="0 0 32 32" fill="none" xmlns="http://www.w3.org/2000/svg" xmlns:xlink="http://www.w3.org/1999/xlink">
	<desc>
			Created with Pixso.
	</desc>
	<defs>
		<linearGradient x1="12.999998" y1="21.128080" x2="20.000002" y2="6.999999" id="paint_linear_447_301_0" gradientUnits="userSpaceOnUse">
			<stop stop-color="#E280FF"/>
			<stop offset="0.517615" stop-color="#6686FF"/>
			<stop offset="1.000000" stop-color="#4DDDFF"/>
		</linearGradient>
	</defs>
	<rect id="矩形" rx="8.000000" width="32.000000" height="32.000000" fill="#000000" fill-opacity="0"/>
	<rect id="矩形" x="0.500000" y="0.500000" rx="8.000000" width="31.000000" height="31.000000" stroke="#979797" stroke-opacity="0" stroke-width="1.000000"/>
	<rect id="矩形" x="4.000000" y="4.000000" width="24.000000" height="24.000000" fill="#D8D8D8" fill-opacity="0"/>
	<rect id="矩形" x="4.500000" y="4.500000" width="23.000000" height="23.000000" stroke="#979797" stroke-opacity="0" stroke-width="1.000000"/>
	<rect id="矩形" x="13.000000" y="7.000000" rx="3.500000" width="7.000000" height="11.000000" fill="url(#paint_linear_447_301_0)" fill-opacity="0"/>
	<rect id="矩形" x="13.000000" y="7.000000" rx="3.500000" width="7.000000" height="11.000000" stroke="#595959" stroke-opacity="1.000000" stroke-width="1.200000" stroke-linejoin="round"/>
	<path id="路径" d="M8.41 14.02L8.39 14C8.39 13.66 8.66 13.4 9 13.4C9.33 13.4 9.6 13.66 9.6 14L23.39 14C23.39 13.66 23.66 13.4 24 13.4C24.33 13.4 24.6 13.66 24.6 14L24.58 14.02L24 14.02C23.98 18.42 20.63 22 16.5 22C12.36 22 9.01 18.42 9 14.02L8.41 14.02Z" fill="#D8D8D8" fill-opacity="0" fill-rule="evenodd"/>
	<path id="路径" d="M9 14C9 18.41 12.35 22 16.5 22C20.64 22 24 18.41 24 14" stroke="#595959" stroke-opacity="1.000000" stroke-width="1.200000" stroke-linecap="round"/>
	<path id="路径 2" d="M15.91 22.6L15.89 22.58C15.89 22.24 16.16 21.98 16.5 21.98C16.83 21.98 17.1 22.24 17.1 22.58L17.08 22.6L15.91 22.6ZM17.08 25.34L17.1 25.36C17.1 25.7 16.83 25.96 16.5 25.96C16.16 25.96 15.89 25.7 15.89 25.36L15.91 25.34L17.08 25.34Z" fill="#D8D8D8" fill-opacity="0" fill-rule="nonzero"/>
	<path id="路径 2" d="M16.5 22.58L16.5 25.36" stroke="#595959" stroke-opacity="1.000000" stroke-width="1.200000" stroke-linecap="round"/>
</svg>
